<?xml version="1.0" encoding="utf-8"?>
<!-- Generator: Adobe Illustrator 16.0.0, SVG Export Plug-In . SVG Version: 6.00 Build 0)  -->
<!DOCTYPE svg PUBLIC "-//W3C//DTD SVG 1.1//EN" "http://www.w3.org/Graphics/SVG/1.1/DTD/svg11.dtd">
<svg version="1.1" id="圖層_1" xmlns="http://www.w3.org/2000/svg" xmlns:xlink="http://www.w3.org/1999/xlink" x="0px" y="0px"
	 width="90px" height="90px" viewBox="0 0 90 90" enable-background="new 0 0 90 90" xml:space="preserve">
<g>
	<rect y="0" fill="#D1333E" width="90" height="90"/>
	<g>
		<path fill="#FFFFFF" d="M27.235,10.522v42.261h-9.196V31.622l0.314-11.967h-0.252l-5.416,4.535L9.475,26.33l-4.976-7.179
			l13.478-8.629H27.235z"/>
		<path fill="#FFFFFF" d="M35.735,41.194c0-5.227,3.275-8.439,7.621-9.762v-0.253c-3.589-0.881-6.55-4.092-6.55-9.005
			c0-7.872,5.101-12.282,13.918-12.282c9.069,0,13.729,3.842,13.729,11.588c0,4.598-3.022,7.874-6.55,9.132v0.253
			c3.97,0.819,7.621,3.337,7.621,9.321c0,8.943-5.857,13.226-14.989,13.226C41.151,53.413,35.735,49.696,35.735,41.194z
			 M44.743,40.626c0,3.339,1.762,5.417,5.981,5.417c4.157,0,5.795-2.015,5.795-5.542c0-2.835-1.135-5.416-5.921-5.416
			C46.003,35.086,44.743,37.92,44.743,40.626z M55.385,22.236c0-2.833-1.448-4.848-4.723-4.848c-3.525,0-4.786,1.952-4.786,4.848
			c0,3.401,1.134,5.543,4.786,5.543C54.251,27.78,55.385,25.701,55.385,22.236z"/>
	</g>
	<g>
		<rect x="68.381" y="17.023" fill="#FFFFFF" width="16.783" height="5.111"/>
		<rect x="74.217" y="11.188" fill="#FFFFFF" width="5.11" height="16.783"/>
	</g>
	<g opacity="0.9">
		<path fill="#FFFFFF" d="M12.694,60.111c0.103-0.034,0.198-0.051,0.284-0.051c0.172,0,0.335,0.051,0.49,0.154l0.695,0.412
			c0.311,0.173,0.533,0.43,0.671,0.774c0.068,0.171,0.104,0.353,0.104,0.541c0,0.155-0.027,0.31-0.078,0.464
			c-0.895,2.803-1.564,4.771-2.011,5.905c-0.036,0.12-0.019,0.232,0.051,0.336c1.271,1.563,1.908,3.31,1.908,5.234
			c0.017,0.052,0.025,0.103,0.025,0.155c0,1.633-0.412,2.725-1.238,3.273c-0.344,0.293-0.858,0.5-1.546,0.62
			c-0.12,0.017-0.241,0.025-0.361,0.025c-0.035,0.018-0.069,0.026-0.104,0.026c-0.361,0-0.679-0.129-0.953-0.388
			c-0.311-0.274-0.517-0.627-0.62-1.057c-0.017-0.086-0.025-0.172-0.025-0.259c0-0.223,0.068-0.43,0.207-0.618
			c0.188-0.259,0.447-0.412,0.772-0.464c0.189-0.035,0.37-0.112,0.541-0.232c0.328-0.24,0.491-0.73,0.491-1.47
			c0-1.187-0.354-2.329-1.059-3.431c-0.377-0.635-0.567-1.254-0.567-1.855c0-0.275,0.036-0.551,0.104-0.826
			c0.274-0.928,0.662-2.354,1.16-4.28c0-0.034-0.013-0.073-0.039-0.116c-0.025-0.042-0.064-0.064-0.115-0.064H9.549
			c-0.137,0-0.206,0.068-0.206,0.207v19.057c0,0.412-0.142,0.76-0.426,1.044c-0.283,0.283-0.627,0.426-1.032,0.426
			c-0.403,0-0.747-0.143-1.03-0.426c-0.284-0.284-0.427-0.632-0.427-1.044V61.658c0-0.429,0.146-0.79,0.439-1.082
			c0.292-0.293,0.653-0.439,1.082-0.439h4.642C12.627,60.137,12.66,60.129,12.694,60.111z M26.078,73.779
			c0.292-0.311,0.645-0.499,1.058-0.568c0.086,0,0.162,0,0.231,0c0.326,0,0.628,0.095,0.903,0.284
			c0.344,0.241,0.516,0.576,0.516,1.006c0,0.344-0.13,0.636-0.387,0.876c-0.824,0.757-1.6,1.41-2.321,1.961
			c-0.085,0.086-0.094,0.18-0.024,0.283c0.755,1.049,1.658,1.908,2.706,2.578c0.311,0.189,0.499,0.474,0.567,0.852
			c0,0.068,0,0.146,0,0.232c0,0.274-0.086,0.523-0.257,0.748c-0.069,0.085-0.139,0.171-0.206,0.257
			c-0.259,0.36-0.585,0.593-0.981,0.696c-0.12,0.018-0.24,0.025-0.361,0.025c-0.257,0-0.514-0.076-0.772-0.231
			c-2.717-1.96-4.642-5.347-5.775-10.16c-0.036-0.12-0.121-0.181-0.259-0.181H19.22c-0.139,0-0.207,0.061-0.207,0.181v6.446
			c0,0.121,0.068,0.173,0.207,0.155c0.67-0.12,1.417-0.258,2.243-0.413c0.086-0.017,0.171-0.025,0.257-0.025
			c0.259,0,0.498,0.086,0.722,0.258c0.293,0.224,0.456,0.525,0.491,0.902c0.017,0.051,0.025,0.095,0.025,0.129
			c0,0.344-0.104,0.653-0.31,0.929c-0.24,0.327-0.55,0.533-0.929,0.618c-0.463,0.104-2.44,0.533-5.931,1.29
			c-0.137,0.034-0.266,0.052-0.387,0.052c-0.293,0-0.567-0.078-0.824-0.232c-0.379-0.206-0.637-0.516-0.773-0.928l-0.053-0.154
			c-0.052-0.139-0.077-0.275-0.077-0.413c0-0.224,0.068-0.448,0.206-0.671c0.207-0.326,0.498-0.524,0.877-0.594
			c0.551-0.085,0.903-0.137,1.057-0.154c0.139-0.018,0.207-0.094,0.207-0.232V61.686c0-0.43,0.146-0.791,0.439-1.084
			c0.29-0.293,0.651-0.439,1.081-0.439h9.207c0.412,0,0.77,0.146,1.07,0.439c0.3,0.293,0.451,0.654,0.451,1.084v9.23
			c0,0.413-0.151,0.77-0.451,1.07c-0.301,0.301-0.658,0.451-1.07,0.451H23.86c-0.052,0-0.091,0.018-0.116,0.052
			s-0.03,0.077-0.012,0.129c0.223,0.843,0.507,1.659,0.851,2.45c0.052,0.103,0.128,0.111,0.231,0.025
			C25.279,74.63,25.7,74.191,26.078,73.779z M25.15,63.077c0-0.138-0.069-0.206-0.207-0.206H19.22c-0.139,0-0.207,0.068-0.207,0.206
			v1.702c0,0.119,0.068,0.18,0.207,0.18h5.724c0.138,0,0.207-0.061,0.207-0.18V63.077z M19.22,67.512
			c-0.139,0-0.207,0.07-0.207,0.207v1.831c0,0.12,0.068,0.181,0.207,0.181h5.724c0.138,0,0.207-0.061,0.207-0.181v-1.831
			c0-0.137-0.069-0.207-0.207-0.207H19.22z"/>
		<path fill="#FFFFFF" d="M41.035,65.32c-0.138,0-0.206,0.069-0.206,0.207v1.599c0,0.12,0.068,0.181,0.206,0.181h4.178
			c0.377,0,0.704,0.137,0.98,0.412c0.274,0.275,0.411,0.611,0.411,1.006c0,0.396-0.137,0.73-0.411,1.006
			c-0.276,0.274-0.604,0.412-0.98,0.412h-4.178c-0.138,0-0.206,0.061-0.206,0.181v1.547c0,0.138,0.068,0.206,0.206,0.206h3.43
			c0.412,0,0.77,0.146,1.07,0.438c0.301,0.293,0.451,0.653,0.451,1.083v5.209c0,0.637-0.069,1.14-0.206,1.51
			c-0.138,0.369-0.387,0.666-0.748,0.889c-0.413,0.24-0.972,0.387-1.676,0.439c-0.035,0.016-0.07,0.025-0.104,0.025
			c-0.344,0-0.654-0.121-0.929-0.361c-0.311-0.258-0.525-0.585-0.644-0.98c-0.036-0.104-0.053-0.205-0.053-0.309
			c0-0.207,0.069-0.396,0.207-0.567c0.188-0.258,0.438-0.396,0.746-0.413c0.104,0,0.19,0,0.26,0c0.119,0,0.201-0.021,0.244-0.064
			c0.042-0.043,0.063-0.125,0.063-0.244v-3.662c0-0.138-0.059-0.207-0.179-0.207h-1.935c-0.138,0-0.206,0.069-0.206,0.207v7.064
			c0,0.413-0.146,0.766-0.439,1.059c-0.291,0.291-0.644,0.438-1.057,0.438s-0.765-0.146-1.058-0.438
			c-0.291-0.293-0.438-0.646-0.438-1.059v-7.064c0-0.138-0.061-0.207-0.181-0.207h-1.779c-0.138,0-0.206,0.069-0.206,0.207v5.08
			c0,0.379-0.134,0.705-0.399,0.979c-0.269,0.274-0.594,0.412-0.981,0.412c-0.386,0-0.718-0.138-0.992-0.412
			s-0.412-0.601-0.412-0.979v-6.551c0-0.43,0.146-0.79,0.438-1.083c0.291-0.292,0.652-0.438,1.082-0.438h3.25
			c0.12,0,0.181-0.068,0.181-0.206v-1.547c0-0.12-0.061-0.181-0.181-0.181h-4.384c-0.396,0-0.73-0.138-1.007-0.412
			c-0.274-0.275-0.411-0.61-0.411-1.006c0-0.395,0.137-0.73,0.411-1.006c0.276-0.275,0.61-0.412,1.007-0.412h0.36
			c0.034,0,0.052-0.01,0.052-0.026s-0.01-0.034-0.025-0.052c-0.224-0.119-0.49-0.24-0.799-0.361
			c-0.362-0.154-0.604-0.42-0.723-0.799c-0.068-0.154-0.104-0.318-0.104-0.49c0-0.206,0.054-0.403,0.156-0.593
			c0.549-1.169,1.014-2.527,1.393-4.075c0.085-0.395,0.301-0.704,0.645-0.928c0.239-0.154,0.499-0.232,0.773-0.232
			c0.104,0,0.215,0.01,0.335,0.026c0.396,0.087,0.705,0.301,0.928,0.645c0.139,0.224,0.208,0.464,0.208,0.722
			c0,0.121-0.01,0.241-0.027,0.361c-0.067,0.258-0.146,0.524-0.232,0.8c-0.017,0.034-0.009,0.073,0.027,0.115
			c0.033,0.044,0.068,0.065,0.103,0.065h1.315c0.12,0,0.181-0.068,0.181-0.207v-1.624c0-0.413,0.146-0.765,0.438-1.058
			c0.293-0.292,0.645-0.438,1.058-0.438s0.766,0.146,1.057,0.438c0.293,0.293,0.439,0.645,0.439,1.058v1.624
			c0,0.139,0.068,0.207,0.206,0.207h3.095c0.395,0,0.73,0.137,1.005,0.412c0.275,0.275,0.413,0.61,0.413,1.006
			s-0.138,0.73-0.413,1.006c-0.274,0.274-0.61,0.412-1.005,0.412H41.035z M34.355,67.152c-0.017,0.034-0.012,0.068,0.014,0.103
			s0.064,0.052,0.116,0.052h3.172c0.12,0,0.181-0.061,0.181-0.181v-1.599c0-0.138-0.061-0.207-0.181-0.207h-2.296
			c-0.119,0-0.206,0.061-0.257,0.182C34.914,66,34.666,66.55,34.355,67.152z M48.229,61.594c0.292-0.283,0.64-0.425,1.046-0.425
			c0.402,0,0.746,0.142,1.029,0.425c0.284,0.285,0.427,0.624,0.427,1.02v11.939c0,0.412-0.143,0.76-0.427,1.044
			c-0.283,0.284-0.627,0.425-1.029,0.425c-0.406,0-0.754-0.141-1.046-0.425s-0.438-0.632-0.438-1.044V62.613
			C47.791,62.218,47.938,61.879,48.229,61.594z M52.536,60.938c0-0.413,0.146-0.766,0.438-1.058
			c0.291-0.292,0.646-0.438,1.058-0.438s0.764,0.146,1.057,0.438s0.438,0.645,0.438,1.058v19.004c0,0.842-0.095,1.496-0.283,1.96
			c-0.189,0.464-0.525,0.825-1.006,1.083c-0.637,0.326-1.642,0.525-3.018,0.594c-0.017,0-0.043,0-0.077,0
			c-0.395,0-0.747-0.129-1.058-0.387c-0.343-0.275-0.584-0.637-0.722-1.084c-0.017-0.068-0.044-0.146-0.077-0.231
			c-0.035-0.12-0.051-0.241-0.051-0.361c0-0.206,0.067-0.412,0.206-0.619c0.205-0.274,0.479-0.412,0.824-0.412h0.026
			c0.498,0,1.048,0,1.65,0c0.224-0.017,0.378-0.064,0.463-0.142c0.087-0.078,0.13-0.219,0.13-0.426V60.938z"/>
		<path fill="#FFFFFF" d="M66.486,72.902c-0.035-0.104-0.103-0.146-0.207-0.129l-1.314,0.104c-0.12,0-0.181,0.068-0.181,0.205v9.232
			c0,0.378-0.134,0.699-0.4,0.967c-0.266,0.266-0.589,0.4-0.967,0.4s-0.7-0.135-0.966-0.4c-0.268-0.268-0.4-0.589-0.4-0.967v-9.052
			c0-0.138-0.061-0.197-0.18-0.181c-0.896,0.053-1.651,0.096-2.271,0.129c-0.034,0-0.068,0-0.102,0
			c-0.346,0-0.646-0.111-0.903-0.334c-0.293-0.241-0.455-0.551-0.49-0.929c0-0.052,0-0.095,0-0.13c0-0.326,0.102-0.609,0.31-0.851
			c0.239-0.274,0.55-0.421,0.928-0.438l0.361-0.025c0.12,0,0.224-0.052,0.309-0.155c0.292-0.396,0.619-0.851,0.98-1.366
			c0.087-0.104,0.087-0.215,0-0.335c-0.516-0.739-1.211-1.573-2.089-2.501c-0.258-0.275-0.404-0.594-0.438-0.955
			c0-0.052,0-0.104,0-0.154c0-0.31,0.094-0.602,0.283-0.877l0.335-0.49c0.121-0.154,0.274-0.244,0.465-0.271
			c0.188-0.025,0.352,0.03,0.489,0.167c0.052,0.035,0.086,0.027,0.104-0.025c0.516-1.031,0.98-2.08,1.392-3.146
			c0.155-0.377,0.413-0.652,0.774-0.824c0.188-0.086,0.387-0.129,0.593-0.129c0.172,0,0.335,0.025,0.489,0.076
			c0.361,0.139,0.611,0.388,0.749,0.748c0.068,0.155,0.102,0.311,0.102,0.465c0,0.189-0.051,0.379-0.153,0.567
			c-0.945,1.771-1.676,3.06-2.192,3.868c-0.068,0.104-0.06,0.206,0.026,0.309c0.361,0.413,0.575,0.663,0.645,0.748
			c0.033,0.053,0.072,0.074,0.117,0.064c0.042-0.008,0.081-0.029,0.115-0.064c0.618-1.031,1.159-1.984,1.624-2.861
			c0.171-0.344,0.447-0.576,0.825-0.696c0.154-0.069,0.318-0.104,0.489-0.104c0.19,0,0.388,0.053,0.593,0.156
			c0.344,0.154,0.567,0.412,0.672,0.773c0.033,0.119,0.052,0.231,0.052,0.335c0,0.241-0.069,0.464-0.207,0.671
			c-1.427,2.166-2.776,4.082-4.048,5.75c-0.034,0.034-0.043,0.068-0.025,0.103c0.017,0.034,0.042,0.052,0.076,0.052l2.476-0.129
			c0.052,0,0.091-0.017,0.116-0.051c0.026-0.035,0.03-0.078,0.013-0.129c-0.103-0.225-0.206-0.456-0.31-0.697
			c-0.086-0.154-0.128-0.31-0.128-0.463c0-0.121,0.024-0.241,0.077-0.362c0.104-0.292,0.291-0.498,0.567-0.618
			c0.153-0.068,0.309-0.104,0.464-0.104c0.138,0,0.274,0.025,0.412,0.077c0.31,0.104,0.533,0.293,0.671,0.567
			c0.653,1.256,1.151,2.407,1.495,3.456c0.051,0.138,0.078,0.267,0.078,0.386c0,0.207-0.043,0.405-0.13,0.594
			c-0.172,0.31-0.42,0.541-0.747,0.696c-0.138,0.052-0.275,0.077-0.413,0.077s-0.283-0.033-0.438-0.104
			c-0.276-0.137-0.464-0.36-0.567-0.67V72.902z M58.956,75.738c0.051-0.344,0.215-0.627,0.489-0.852
			c0.225-0.154,0.465-0.231,0.723-0.231c0.068,0,0.146,0,0.232,0c0.36,0.069,0.653,0.249,0.877,0.542
			c0.171,0.24,0.257,0.507,0.257,0.799c0,0.069,0,0.138,0,0.207c-0.24,1.633-0.559,3.051-0.954,4.254
			c-0.103,0.326-0.326,0.551-0.67,0.671c-0.137,0.052-0.283,0.077-0.438,0.077c-0.19,0-0.369-0.043-0.54-0.129
			c-0.328-0.154-0.561-0.395-0.697-0.721c-0.069-0.189-0.103-0.379-0.103-0.568c0-0.154,0.016-0.309,0.051-0.465
			C58.509,78.343,58.768,77.148,58.956,75.738z M80.205,67.074c0.119-0.034,0.231-0.052,0.334-0.052c0.19,0,0.388,0.044,0.594,0.13
			l0.489,0.18c0.26,0.104,0.465,0.275,0.62,0.516c0.104,0.189,0.154,0.379,0.154,0.567c0,0.087-0.009,0.172-0.025,0.258
			c-0.791,3.714-2.08,6.86-3.868,9.438c-0.068,0.103-0.052,0.197,0.052,0.283c0.928,0.877,1.968,1.598,3.119,2.166
			c0.327,0.154,0.533,0.412,0.619,0.773c0.018,0.086,0.025,0.172,0.025,0.258c0,0.258-0.086,0.49-0.257,0.696
			c-0.018,0.034-0.043,0.069-0.078,0.104c-0.257,0.361-0.585,0.602-0.979,0.722c-0.154,0.052-0.31,0.078-0.465,0.078
			c-0.239,0-0.48-0.061-0.722-0.182c-1.151-0.636-2.2-1.409-3.146-2.32c-0.086-0.104-0.181-0.104-0.284,0
			c-0.772,0.791-1.633,1.504-2.578,2.141c-0.257,0.154-0.534,0.232-0.824,0.232c-0.104,0-0.216-0.01-0.337-0.025
			c-0.412-0.088-0.765-0.303-1.057-0.646c-0.035-0.018-0.061-0.043-0.078-0.077c-0.206-0.225-0.309-0.482-0.309-0.774
			c0-0.052,0-0.103,0-0.154c0.052-0.36,0.232-0.636,0.541-0.825c0.998-0.619,1.926-1.357,2.785-2.218
			c0.087-0.085,0.095-0.181,0.026-0.284c-0.843-1.306-1.581-2.844-2.218-4.615c0-0.034-0.013-0.047-0.039-0.039
			c-0.025,0.01-0.038,0.022-0.038,0.039c-0.533,3.662-1.659,6.662-3.379,9c-0.241,0.31-0.558,0.48-0.954,0.516
			c-0.033,0-0.076,0-0.129,0c-0.344,0-0.653-0.104-0.928-0.311c-0.293-0.223-0.474-0.516-0.543-0.876c0-0.068,0-0.146,0-0.232
			c0-0.274,0.087-0.524,0.26-0.747c0.377-0.533,0.722-1.092,1.031-1.677c0-0.017-0.01-0.038-0.026-0.063
			c-0.018-0.025-0.034-0.03-0.052-0.014c-0.138,0.052-0.267,0.077-0.386,0.077c-0.173,0-0.346-0.052-0.517-0.154
			c-0.293-0.155-0.48-0.396-0.567-0.723c-0.19-0.704-0.43-1.461-0.722-2.269c-0.051-0.121-0.078-0.249-0.078-0.387
			c0-0.154,0.045-0.318,0.129-0.49c0.138-0.274,0.353-0.464,0.645-0.567c0.138-0.034,0.275-0.052,0.414-0.052
			c0.171,0,0.343,0.035,0.515,0.104c0.311,0.139,0.524,0.36,0.646,0.671c0.258,0.653,0.489,1.323,0.696,2.011
			c0,0.035,0.017,0.051,0.051,0.051s0.06-0.008,0.078-0.025c0.996-2.612,1.495-5.931,1.495-9.953v-3.738
			c0-0.121-0.068-0.182-0.206-0.182h-0.567c-0.396,0-0.731-0.142-1.006-0.426c-0.274-0.283-0.412-0.623-0.412-1.018
			c0-0.396,0.138-0.736,0.412-1.02s0.609-0.425,1.006-0.425h7.271c0.052,0,0.094-0.009,0.13-0.026
			c0.188-0.052,0.377-0.077,0.567-0.077c0.084,0,0.18,0.009,0.283,0.025l0.592,0.078c0.293,0.034,0.529,0.168,0.71,0.399
			c0.181,0.232,0.244,0.494,0.193,0.787c-0.224,1.512-0.524,3.24-0.903,5.184c-0.016,0.119,0.035,0.18,0.156,0.18h1.908
			C80.127,67.074,80.17,67.074,80.205,67.074z M72.855,63.412c-0.139,0-0.207,0.061-0.207,0.182v0.85
			c0.705,4.831,1.943,8.605,3.714,11.32c0.034,0.035,0.073,0.052,0.115,0.052c0.044,0,0.082-0.017,0.116-0.052
			c1.066-1.633,1.892-3.531,2.477-5.699c0.016-0.051,0.008-0.094-0.026-0.128c-0.033-0.034-0.078-0.052-0.129-0.052h-1.393
			c-0.087,0-0.138,0.035-0.153,0.104c-0.053,0.258-0.186,0.464-0.4,0.619c-0.215,0.154-0.452,0.215-0.71,0.18l-0.464-0.051
			c-0.378-0.035-0.679-0.207-0.902-0.516c-0.155-0.225-0.232-0.465-0.232-0.723c0-0.104,0.009-0.197,0.026-0.283
			c0.343-1.668,0.696-3.541,1.058-5.621c0.017-0.121-0.044-0.182-0.181-0.182H72.855z"/>
	</g>
</g>
</svg>
