<?xml version="1.0" encoding="UTF-8"?>
<svg width="20px" height="20px" viewBox="0 0 20 20" version="1.1" xmlns="http://www.w3.org/2000/svg" xmlns:xlink="http://www.w3.org/1999/xlink">
    <!-- Generator: Sketch 51 (57462) - http://www.bohemiancoding.com/sketch -->
    <title>report-icon</title>
    <desc>Created with Sketch.</desc>
    <defs></defs>
    <g id="Page-1" stroke="none" stroke-width="1" fill="none" fill-rule="evenodd">
        <g id="檢舉文章" transform="translate(-15.000000, -61.000000)" fill="#727272" fill-rule="nonzero">
            <g id="form">
                <path d="M25.77,73.43 L25.93,65.89 L24.05,65.89 L24.21,73.43 L25.77,73.43 Z M25,75 C24.6774958,74.9821986 24.3627894,75.1032564 24.135355,75.332602 C23.9079206,75.5619477 23.7895005,75.877656 23.81,76.2 C23.7957308,76.5171071 23.9154959,76.8255931 24.14,77.05 C24.6329652,77.4893988 25.3770348,77.4893988 25.87,77.05 C26.0945041,76.8255931 26.2142692,76.5171071 26.2,76.2 C26.2207896,75.8758127 26.101053,75.5583589 25.871347,75.328653 C25.6416411,75.098947 25.3241873,74.9792104 25,75 Z M25,61 C19.4771525,61 15,65.4771525 15,71 C15,76.5228475 19.4771525,81 25,81 C30.5228475,81 35,76.5228475 35,71 C35,68.3478351 33.9464316,65.804296 32.0710678,63.9289322 C30.195704,62.0535684 27.6521649,61 25,61 Z M25,79 C20.581722,79 17,75.418278 17,71 C17,66.581722 20.581722,63 25,63 C29.418278,63 33,66.581722 33,71 C33,73.1217319 32.1571453,75.1565632 30.6568542,76.6568542 C29.1565632,78.1571453 27.1217319,79 25,79 Z" id="report-icon"></path>
            </g>
        </g>
    </g>
</svg>