<?xml version="1.0" encoding="UTF-8"?>
<svg width="20px" height="22px" viewBox="0 0 20 22" version="1.1" xmlns="http://www.w3.org/2000/svg" xmlns:xlink="http://www.w3.org/1999/xlink">
    <!-- Generator: Sketch 51 (57462) - http://www.bohemiancoding.com/sketch -->
    <title>Shape</title>
    <desc>Created with Sketch.</desc>
    <defs></defs>
    <g id="Page-1" stroke="none" stroke-width="1" fill="none" fill-rule="evenodd">
        <g id="Line-floating-button" transform="translate(-191.000000, -105.000000)" fill="#FFFFFF" fill-rule="nonzero">
            <g id="Buttons" transform="translate(0.000000, 94.000000)">
                <g id="分享" transform="translate(187.000000, 6.000000)">
                    <path d="M20.006735,19.0072109 C18.9406458,19.0063661 17.9183277,19.4311321 17.166735,20.1872109 L11.836735,17.0872109 C11.9442234,16.7370694 12.0014611,16.3734417 12.006735,16.0072109 C12.0014611,15.64098 11.9442234,15.2773523 11.836735,14.9272109 L17.166735,11.8172109 C18.5121001,13.173648 20.6288866,13.3893445 22.2201964,12.332149 C23.8115061,11.2749535 24.4330721,9.24001715 23.7040776,7.47409077 C22.9750831,5.70816439 21.099051,4.70426493 19.2253759,5.07745463 C17.3517008,5.45064432 16.0034812,7.09673489 16.006735,9.00721086 C16.0120089,9.37344166 16.0692465,9.73706938 16.176735,10.0872109 L10.846735,13.1972109 C9.70687406,12.0424486 7.98234822,11.690679 6.48127354,12.306742 C4.98019887,12.9228049 4,14.384633 4,16.0072109 C4,17.6297887 4.98019887,19.0916168 6.48127354,19.7076797 C7.98234822,20.3237427 9.70687406,19.9719731 10.846735,18.8172109 L16.176735,21.9272109 C16.0684425,22.2771662 16.0111865,22.6409102 16.006735,23.0072109 C16.006735,25.2163499 17.797596,27.0072109 20.006735,27.0072109 C22.215874,27.0072109 24.006735,25.2163499 24.006735,23.0072109 C24.006735,20.7980719 22.215874,19.0072109 20.006735,19.0072109 Z M20.006735,7.00721086 C21.1113045,7.00721086 22.006735,7.90264136 22.006735,9.00721086 C22.006735,10.1117804 21.1113045,11.0072109 20.006735,11.0072109 C18.9021655,11.0072109 18.006735,10.1117804 18.006735,9.00721086 C18.006735,7.90264136 18.9021655,7.00721086 20.006735,7.00721086 Z M8.00673497,18.0072109 C6.90216547,18.0072109 6.00673497,17.1117804 6.00673497,16.0072109 C6.00673497,14.9026414 6.90216547,14.0072109 8.00673497,14.0072109 C9.11130447,14.0072109 10.006735,14.9026414 10.006735,16.0072109 C10.006735,17.1117804 9.11130447,18.0072109 8.00673497,18.0072109 Z M20.006735,25.0072109 C18.9021655,25.0072109 18.006735,24.1117804 18.006735,23.0072109 C18.0103924,22.6550384 18.1069818,22.3100765 18.286735,22.0072109 C18.7728006,21.1653611 19.7937997,20.7949267 20.7065981,21.1292466 C21.6193965,21.4635666 22.1596163,22.4058105 21.9869694,23.3624524 C21.8143226,24.3190944 20.9788134,25.013058 20.006735,25.0072109 Z" id="Shape"></path>
                </g>
            </g>
        </g>
    </g>
</svg>