<?xml version="1.0" encoding="UTF-8"?>
<svg width="20px" height="20px" viewBox="0 0 20 20" version="1.1" xmlns="http://www.w3.org/2000/svg" xmlns:xlink="http://www.w3.org/1999/xlink">
    <!-- Generator: Sketch 51 (57462) - http://www.bohemiancoding.com/sketch -->
    <title>report-icon</title>
    <desc>Created with Sketch.</desc>
    <defs></defs>
    <g id="Page-1" stroke="none" stroke-width="1" fill="none" fill-rule="evenodd">
        <g id="Line-floating-button" transform="translate(-334.000000, -106.000000)" fill="#FFFFFF" fill-rule="nonzero">
            <g id="Buttons" transform="translate(0.000000, 94.000000)">
                <g id="檢舉" transform="translate(328.000000, 6.000000)">
                    <path d="M16.77,18.43 L16.93,10.89 L15.05,10.89 L15.21,18.43 L16.77,18.43 Z M16,20 C15.6774958,19.9821986 15.3627894,20.1032564 15.135355,20.332602 C14.9079206,20.5619477 14.7895005,20.877656 14.81,21.2 C14.7957308,21.5171071 14.9154959,21.8255931 15.14,22.05 C15.6329652,22.4893988 16.3770348,22.4893988 16.87,22.05 C17.0945041,21.8255931 17.2142692,21.5171071 17.2,21.2 C17.2207896,20.8758127 17.101053,20.5583589 16.871347,20.328653 C16.6416411,20.098947 16.3241873,19.9792104 16,20 Z M16,6 C10.4771525,6 6,10.4771525 6,16 C6,21.5228475 10.4771525,26 16,26 C21.5228475,26 26,21.5228475 26,16 C26,13.3478351 24.9464316,10.804296 23.0710678,8.92893219 C21.195704,7.0535684 18.6521649,6 16,6 Z M16,24 C11.581722,24 8,20.418278 8,16 C8,11.581722 11.581722,8 16,8 C20.418278,8 24,11.581722 24,16 C24,18.1217319 23.1571453,20.1565632 21.6568542,21.6568542 C20.1565632,23.1571453 18.1217319,24 16,24 Z" id="report-icon"></path>
                </g>
            </g>
        </g>
    </g>
</svg>