<?xml version="1.0" encoding="utf-8"?>
<!-- Generator: Adobe Illustrator 19.1.0, SVG Export Plug-In . SVG Version: 6.00 Build 0)  -->
<svg version="1.1" xmlns="http://www.w3.org/2000/svg" xmlns:xlink="http://www.w3.org/1999/xlink" x="0px" y="0px"
	 viewBox="0 0 80 80" style="enable-background:new 0 0 80 80;" xml:space="preserve">
<style type="text/css">
	.st0{display:none;}
	.st1{display:inline;}
	.st2{fill:#FFBA00;}
	.st3{fill:#ABABAB;}
	.st4{display:inline;fill:#FF6101;}
	.st5{fill:#CC1800;}
	.st6{display:inline;fill:#1EB500;}
	.st7{fill:#BA33D7;}
	.st8{display:inline;fill:#008BCC;}
	.st9{fill:#FA278F;}
	.st10{fill:#231F20;}
</style>
<g id="圖層_1" class="st0">
	<g id="icon_15_" class="st1">
		<path class="st2" d="M40.6,77C20.6,77,4.2,60.7,4.2,40.6S20.6,4.2,40.6,4.2C60.7,4.2,77,20.6,77,40.6S60.7,77,40.6,77z M40.6,12.3
			C25,12.3,12.3,25,12.3,40.6S25,68.9,40.6,68.9c15.6,0,28.3-12.7,28.3-28.3S56.2,12.3,40.6,12.3z"/>
		<path class="st2" d="M44.7,44.7h-6.1c-5.6,0-10.1-4.5-10.1-10.1S33,24.5,38.6,24.5h6.1c2.2,0,4,1.8,4,4s-1.8,4-4,4h-6.1
			c-1.1,0-2,0.9-2,2s0.9,2,2,2h6.1c2.2,0,4,1.8,4,4C48.7,42.9,46.9,44.7,44.7,44.7z"/>
		<path class="st2" d="M42.6,56.8H32.5c-2.2,0-4-1.8-4-4c0-2.2,1.8-4,4-4h10.1c1.1,0,2-0.9,2-2c0-1.1-0.9-2-2-2c-2.2,0-4-1.8-4-4
			c0-2.2,1.8-4,4-4c5.6,0,10.1,4.5,10.1,10.1S48.2,56.8,42.6,56.8z"/>
		<path class="st2" d="M40.6,28.5c-2.2,0-4-1.8-4-4v-4c0-2.2,1.8-4,4-4c2.2,0,4,1.8,4,4v4C44.7,26.7,42.9,28.5,40.6,28.5z"/>
		<path class="st2" d="M40.6,64.9c-2.2,0-4-1.8-4-4v-4c0-2.2,1.8-4,4-4c2.2,0,4,1.8,4,4v4C44.7,63.1,42.9,64.9,40.6,64.9z"/>
	</g>
</g>
<g id="圖層_2" class="st0">
	<g class="st1">
		<g>
			<path class="st3" d="M45.3,56.7c-1.8,0-3.6-0.3-5.3-1c-7.4-3-11-11.4-8.1-18.8c1.4-3.6,4.2-6.4,7.7-7.9c3.6-1.5,7.5-1.6,11.1-0.1
				c3.6,1.4,6.4,4.2,7.9,7.7c1.5,3.6,1.6,7.5,0.1,11.1l0,0C56.5,53.2,51.1,56.7,45.3,56.7z M45.3,35.2c-0.9,0-1.9,0.2-2.8,0.6
				c-1.7,0.7-3.1,2.1-3.8,3.8c-1.4,3.6,0.3,7.7,3.9,9.1c3.6,1.4,7.7-0.3,9.1-3.9l0,0c0.7-1.7,0.7-3.6-0.1-5.4
				c-0.7-1.7-2.1-3.1-3.8-3.8C47.1,35.4,46.2,35.2,45.3,35.2z M55.3,46.2L55.3,46.2L55.3,46.2z"/>
		</g>
		<g>
			<path class="st3" d="M15,57.3c-1.3,0-2.7-0.2-4-0.8c-5.5-2.2-8.2-8.5-6-14c1.1-2.7,3.1-4.8,5.7-5.9c2.6-1.1,5.6-1.2,8.2-0.1
				c5.5,2.2,8.2,8.5,6,14c0,0,0,0,0,0C23.3,54.8,19.3,57.3,15,57.3z M15,43.3c-0.4,0-0.9,0.1-1.3,0.3c-0.8,0.3-1.4,1-1.8,1.8
				c-0.7,1.7,0.1,3.6,1.8,4.3c1.7,0.7,3.6-0.1,4.3-1.8c0.3-0.8,0.3-1.7,0-2.5c-0.3-0.8-1-1.4-1.8-1.8C15.9,43.4,15.5,43.3,15,43.3z
				 M21.6,49.2L21.6,49.2L21.6,49.2z"/>
		</g>
		<g>
			<path class="st3" d="M64.2,77c-1.3,0-2.7-0.2-4-0.8c-2.7-1.1-4.8-3.1-5.9-5.7c-1.1-2.6-1.2-5.6-0.1-8.2c2.2-5.5,8.5-8.2,14-6
				c5.5,2.2,8.2,8.5,6,14C72.6,74.4,68.5,77,64.2,77z M64.3,63c-1.3,0-2.6,0.8-3.1,2.1c-0.3,0.8-0.3,1.7,0,2.5
				c0.3,0.8,1,1.4,1.8,1.8c1.7,0.7,3.6-0.1,4.3-1.8c0.3-0.8,0.3-1.7,0-2.5c-0.3-0.8-1-1.4-1.8-1.8C65.1,63,64.7,63,64.3,63z"/>
		</g>
		<g>
			<path class="st3" d="M56.2,25.6c-1.3,0-2.7-0.2-4-0.8c-5.5-2.2-8.2-8.5-6-14C47.3,8.2,49.4,6.1,52,5c2.6-1.1,5.6-1.2,8.2-0.1
				c5.5,2.2,8.2,8.5,6,14v0C64.5,23.1,60.5,25.6,56.2,25.6z M56.3,11.6c-0.4,0-0.9,0.1-1.3,0.3c-0.8,0.3-1.4,1-1.8,1.8
				c-0.7,1.7,0.1,3.6,1.8,4.3c1.7,0.7,3.6-0.1,4.3-1.8l0,0c0.3-0.8,0.3-1.7,0-2.5c-0.3-0.8-1-1.4-1.8-1.8
				C57.1,11.7,56.7,11.6,56.3,11.6z M62.8,17.5L62.8,17.5L62.8,17.5z"/>
		</g>
		<g>
			<path class="st3" d="M22,49.3c-1.8,0-3.4-1.3-3.7-3.2c-0.3-2,1.1-3.9,3.2-4.2l12.7-1.8c2-0.3,3.9,1.1,4.2,3.2
				c0.3,2-1.1,3.9-3.2,4.2l-12.7,1.8C22.3,49.3,22.2,49.3,22,49.3z"/>
		</g>
		<g>
			<path class="st3" d="M49.3,36c-0.5,0-0.9-0.1-1.4-0.3c-1.9-0.8-2.8-2.9-2.1-4.8L50.2,20c0.8-1.9,2.9-2.8,4.8-2.1
				c1.9,0.8,2.8,2.9,2.1,4.8l-4.3,10.8C52.2,35.1,50.8,36,49.3,36z"/>
		</g>
		<g>
			<path class="st3" d="M59.9,64.5c-1.1,0-2.2-0.5-2.9-1.4l-8-10.1c-1.3-1.6-1-4,0.6-5.2c1.6-1.3,4-1,5.2,0.6l8,10.1
				c1.3,1.6,1,4-0.6,5.2C61.5,64.2,60.7,64.5,59.9,64.5z"/>
		</g>
	</g>
</g>
<g id="圖層_3" class="st0">
	<path class="st4" d="M70.4,36c-7-11-17.9-16.6-24.4-12.5c-0.5,0.3-0.5,0.3-0.5,0.3c-0.4,0.4-3,0.8-5.9,0.9
		c-2.9-0.1-5.5-0.4-5.9-0.9c0,0,0,0-0.5-0.3C26.7,19.3,15.8,24.9,8.7,36c-7,11-7.5,23.3-1.1,27.4c5.3,3.4,13-2,13-2
		c4-2.8,11.3-5.1,16.2-5.1H38h3.1h1.3c4.9,0,12.2,2.3,16.2,5.1c0,0,7.7,5.4,13,2C77.9,59.2,77.4,47,70.4,36z M30.8,43.2h-5.7v5.7
		h-4.8v-5.7h-5.7v-4.8h5.7v-5.7h4.8v5.7h5.7V43.2z M56.9,52.3c-1.8,0-3.3-1.5-3.3-3.3c0-1.8,1.5-3.3,3.3-3.3c1.8,0,3.3,1.5,3.3,3.3
		C60.2,50.8,58.7,52.3,56.9,52.3z M56.9,40c-1.8,0-3.3-1.5-3.3-3.3c0-1.8,1.5-3.3,3.3-3.3c1.8,0,3.3,1.5,3.3,3.3
		C60.2,38.6,58.7,40,56.9,40z M64.3,46c-1.8,0-3.3-1.5-3.3-3.3c0-1.8,1.5-3.3,3.3-3.3c1.8,0,3.3,1.5,3.3,3.3
		C67.6,44.5,66.1,46,64.3,46z"/>
</g>
<g id="圖層_4" class="st0">
	<g class="st1">
		<g>
			
				<ellipse transform="matrix(0.7071 -0.7071 0.7071 0.7071 -12.5689 19.5244)" class="st5" cx="17.3" cy="24.9" rx="11.7" ry="15.6"/>
			<path class="st5" d="M65.8,68.6c1.3,1.3,1.3,3.5,0,4.9l0,0c-1.3,1.3-3.5,1.3-4.9,0L25.1,37.6c-1.3-1.3-1.3-3.5,0-4.9l0,0
				c1.3-1.3,3.5-1.3,4.9,0L65.8,68.6z"/>
		</g>
		<g>
			<path class="st5" d="M53.5,18c-6,6.1-7.7,14.1-3.9,18c3.9,3.9,11.9,2.1,18-3.9L53.5,18z"/>
			<path class="st5" d="M56.3,20.9c-0.8,0.8-2.1,0.8-2.9,0l0,0c-0.8-0.8-0.8-2.1,0-2.9l9.8-9.8c0.8-0.8,2.1-0.8,2.9,0l0,0
				c0.8,0.8,0.8,2.1,0,2.9L56.3,20.9z"/>
			<path class="st5" d="M67.6,32.2c-0.8,0.8-2.1,0.8-2.9,0l0,0c-0.8-0.8-0.8-2.1,0-2.9l9.8-9.8c0.8-0.8,2.1-0.8,2.9,0l0,0
				c0.8,0.8,0.8,2.1,0,2.9L67.6,32.2z"/>
			<path class="st5" d="M61.9,26.6c-0.8,0.8-2.1,0.8-2.9,0l0,0c-0.8-0.8-0.8-2.1,0-2.9l9.8-9.8c0.8-0.8,2.1-0.8,2.9,0l0,0
				c0.8,0.8,0.8,2.1,0,2.9L61.9,26.6z"/>
		</g>
		<path class="st5" d="M52.9,37.6c1.3-1.3,1.3-3.5,0-4.9c-1.3-1.3-3.5-1.3-4.9,0l-5.7,5.7l4.9,4.9L52.9,37.6z"/>
		<path class="st5" d="M30.9,49.8L12.2,68.5c-1.3,1.3-1.3,3.5,0,4.9c1.3,1.3,3.5,1.3,4.9,0l18.7-18.7L30.9,49.8z"/>
	</g>
</g>
<g id="圖層_5" class="st0">
	<path id="形狀_1" class="st6" d="M39.5,24.6C30,2.1,3.2,7.3,3,33.4C2.9,47.8,15.8,53.1,24.4,58.9c8.3,5.6,14.2,13.2,15.2,16.4
		c0.8-3.2,7.4-11,15.1-16.6c8.4-6.1,21.5-11.1,21.4-25.4C75.8,7.1,48.5,3,39.5,24.6z"/>
</g>
<g id="圖層_6" class="st0">
	<g class="st1">
		<g>
			<path class="st7" d="M68.9,71c-2.1,0-3.9-1.7-3.9-3.9V33.9c0-2.1,1.7-3.9,3.9-3.9c2.1,0,3.9,1.7,3.9,3.9v33.3
				C72.8,69.3,71,71,68.9,71z"/>
		</g>
		<path class="st7" d="M60.7,15.4c2.9,1.8,9.3,6.8,6.8,13.9c-0.7,0.8-4.3,4.1-12.3,6.6c-0.3,0.1-0.6,0.3-0.8,0.5
			C49.5,42.6,44.2,51,40.3,57.1c-1.7,2.6-3.4,5.4-4.2,6.4l-25.4-0.5c0.1-0.5,0.3-0.8,0.4-1c0.7-0.6,6.8-4.7,10.9-7.4
			c1,0.2,2.8,0.5,4.9,0.5c2,0,4.3-0.3,6.3-1.2c4.9-2.2,10.5-8.6,16-18.5C53.4,27.9,58.7,18.8,60.7,15.4 M60.7,7.6
			c-0.6,0-1.2,0.1-1.8,0.2c-2,0.5-3.8,1.8-4.8,3.6c-2.6,4.5-7.6,13-11.6,20.1c-6.7,11.9-11.2,14.7-12.5,15.2
			c-0.7,0.3-1.8,0.5-3.1,0.5c-1.5,0-2.8-0.2-3.3-0.3c-0.5-0.1-1.1-0.2-1.6-0.2c-1.5,0-3,0.4-4.3,1.3C7.4,55,6.4,55.8,6.1,56.1
			c-0.2,0.1-0.3,0.3-0.5,0.4C4.1,58,3.5,59.8,3.2,61c-0.6,2.3-0.1,4.7,1.3,6.6c1.4,1.9,3.6,3,6,3.1L36,71.2c0.1,0,0.1,0,0.2,0
			c2.4,0,4.7-1.1,6.2-3.1c0.9-1.2,2.3-3.3,4.5-6.8c3.5-5.6,8.2-12.9,12.6-18.6c8.2-2.8,12.3-6.5,13.8-8.1c0.7-0.8,1.3-1.7,1.7-2.7
			c3-8.5-0.8-17.3-10-23.1C63.6,8,62.1,7.6,60.7,7.6L60.7,7.6z"/>
	</g>
</g>
<g id="圖層_7" class="st0">
	<path class="st8" d="M39.4,6C20.4,6,5,21.4,5,40.4c0,19,15.4,34.4,34.4,34.4c19,0,34.4-15.4,34.4-34.4C73.8,21.4,58.4,6,39.4,6z
		 M69.1,50.7c-0.1,0-0.2,0-0.2,0.2c0,0.1,0,0.2,0,0.2c-0.8,2.3-1.9,4.4-3.2,6.3c-0.2,0.1-0.4,0.2-0.5,0.4c-0.8-0.2-1,0.3-1.5,0.5
		c-0.3,0-0.3-0.3-0.6-0.2c-0.1-0.6,0.2-0.8,0.1-1.4c0-0.3-0.1-0.5-0.3-0.6c0.3-0.6,0-1.3-0.1-1.8c0.1-0.3,0.6-0.2,0.8-0.4
		c0.4-0.2,0.3-0.9,0.5-1.2c0.2-0.2,0.2,0.1,0.4,0.1c0.2,0,0-0.7,0.2-0.7c0.3,0,0.6-0.3,0.8,0c0.4-0.1,0.3-0.7,0.4-1.1
		c0.3-0.2,0.7-0.3,1-0.4c0.2,0,0-0.5,0.2-0.6c0.5,0.2,1.4,0,1.9,0.3C69.2,50.4,69.2,50.5,69.1,50.7z M15.2,20.3
		c0.1,0.1,0.2,0.1,0.4,0.2c0.4,0,0.4-0.6,0.9-0.5c0,0.3,0.1,0.5,0.2,0.6c0.2-0.2,0.4-1.2,0-1.4c-0.1-0.3,0.2-0.3,0.1-0.6
		c0.5-0.2,0.4,0.3,0.8,0.2c0.1,0.5,0.5,0.8,0.8,1.1c0.1,0.5-0.4,0.4-0.1,0.7c0.2-0.3,0.4-0.5,0.5-0.9c0-0.3-0.4-0.1-0.5-0.1
		c-0.6-0.7,0-2,0.5-2.3c0.3,0,0.5,0.3,0.4,0.7c0.1-0.4,1-0.6,1,0.1c0.4,0,0.6-0.2,1-0.1c0,0.3,0.4,0.2,0.3,0.6c0.3,0,0.6,0,0.9,0
		c0,0.5,0.3,0.6,0.4,0.9c0,0.2-0.3,0.2-0.3,0.5c0.3,0.1,0.6,0.3,0.9,0.4c0.1,0.1,0,0.5,0.3,0.4c0,0.3-0.2,0.4-0.1,0.7
		c-0.3-0.1-0.3,0.2-0.3,0.5c-0.3-0.1-0.4-0.5-0.8-0.5c0,0.4,0.3,0.4,0.3,0.7c0.1,0.7-0.3,0.7-0.1,1.4c-0.9-0.1-1.1-0.9-1.8-1.2
		c-0.4,0-0.9,0-1.1-0.2c0.1-0.9,1.3-0.6,1.4-1.5c0.1-0.5-0.6-0.2-0.4-0.9c-0.3,0.1-0.6-0.4-0.8,0c-0.2-0.3-0.5-0.3-0.9-0.2
		c0.1,0.2,0.4,0.2,0.5,0.4c-0.1,0.3-0.1,0.8-0.1,1.2c-0.5,0.2-0.9,0.3-1.6,0.5c0,0.2,0.1,0.3,0.1,0.5c-0.6,0-0.7,0.6-0.9,1
		c-0.4,0.2-0.5,0.6-0.8,0.9c0,0.2,0,0.4-0.2,0.4c-0.1,0.5,0.5,0.3,0.3,0.9c0.5,0.2,0.8,0.5,1.2,0.9c0.3,0,0.3-0.2,0.4,0.1
		c0.2-0.1,0.2-0.4,0.4-0.1c0.1,0.5,0.2,1.1,0.4,1.5c0.2-0.5,0.2-1.2,0.5-1.5c-0.1-0.2-0.3,0.1-0.4-0.2c0.1-0.3,0.5,0,0.6,0
		c-0.2-0.9,0.3-1.6,0.1-2.8c0.3,0.1,0.3-0.2,0.5-0.1c0.3,0,0.2,0.5,0.5,0.1c0.5,0.1,0.4,0.7,0.9,0.4c0,0.4,0,0.8,0,1.2
		c0,0.3,0.5,0.1,0.7,0.1c0.2,0,0-0.4,0.1-0.6c0.6,0.1,0.4,1,0.8,1.2c0,0.2,0,0.4-0.1,0.5c0,0.5,0.5,0.5,0.5,1.1c0.3,0,0.3-0.2,0.5,0
		c0,0.8,0,0.8,0,1.6c0.2,0.3,0.2,0.7,0.6,0.7c-0.2,0.2-0.1,0.6,0,0.9c-0.3,0.2-0.6-0.3-0.7,0c-0.2,0-0.1-0.3-0.1-0.5
		c-0.4-0.1-0.4,0.2-0.8,0.1c0.2-0.7,0.7-1.1,0.9-1.7c-0.4-0.2-1,0.8-1.5,0.4c-0.1,0.3,0.2,0.3,0.1,0.6c-0.2,0.1-0.6,0.2-0.6,0.5
		c0,0.5,0.5,0.4,0.7,0.6c-0.3,0.4-0.7,0.5-1.2,0.7c0-0.2,0.3-0.2,0.2-0.5c-0.5,0.2-1.1,0.4-1.5,0.7c-0.1,0.5,0.3,0.3,0.2,0.7
		c-0.4,0.1-0.7,0.3-1.1,0.5c0.1,0.8-0.5,0.7-0.2,1.3c-0.1,0.1-0.3,0.2-0.5,0.1c0.1,0.4,0.1,0.4,0,0.7c-0.7,0.2-1.2,0.7-1.4,1.5
		c0,0.3,0.2,0.4,0.3,0.6c-0.1,0.4-0.1,0.6,0,1.2c-0.5-0.1-0.8-0.4-0.7-1.1c-0.1-0.5-0.8-0.3-1.3-0.4c-0.1,0-0.1,0.2-0.1,0.4
		c-0.6,0-0.7-0.4-1.3-0.4c-0.4,0.1-0.6,0.4-0.9,0.5c0.3,1-0.6,3.2,0.8,3.1c0.3-0.1,0.2-0.7,0.4-1c0.5,0.1,0.5,0.1,1.1,0
		c0.1,0.8-0.2,1.1-0.3,1.6c0.4,0.2,1.1,0.1,1.3,0.5c0.1,0.8-0.2,1.4,0,2c0.3-0.1,0.5-0.4,0.7-0.5c0.3,0,0.5,0.2,0.4,0.6
		c0.3-0.4,0.7-0.6,0.8-1.1c0.3,0.1,0.4-0.2,0.5-0.4c0.3,0.1,0.3,0.4,0.5,0.5c0.2,0,0.1-0.5,0.4-0.4c0.1,0.5,0.6,0.5,0.7,1
		c0.1,0,0.2-0.2,0.3-0.2c0.5,0.2,0.9,0.5,1.5,0.7c0.1,0.5,0.3,0.9,0.6,1.1c1-0.5,1.6,1,1.3,1.6c0,0.3,0.4,0.2,0.6,0.3
		c0.1,0.5,0.8,0.3,0.9,0.6c0.2,0,0.5,0,0.7,0c0.4,0.2,0.8,0.3,0.9,0.7c0.2-0.1,0.3-0.4,0.5-0.1c0.1,0.3,0.2,0.7,0.2,1.1
		c0,0.3-0.2,0.4-0.1,0.7c-0.3,0.1,0,0.4-0.3,0.7c-0.1,0.3-0.4,0.4-0.4,0.9c-0.1,0-0.1,0.2-0.3,0.1c0,0.3,0,0.5-0.2,0.6
		c0.3,0.9-0.2,1.6-0.2,2.3c-0.4,0.2-0.4,0.2-0.9,0.4c-0.2,0.2-0.3,0.5-0.5,0.7c0,0.3,0,0.6,0,0.9c-0.2,0.4-0.7,0.5-0.6,1.2
		c-0.3,0-0.4,0.3-0.4,0.6c-0.1,0-0.2,0-0.2,0.1c-0.3,0-0.6,0-0.8,0c0,0.4,0.3,0.7,0.2,1.2c-0.4,0.2-0.6,0.5-1.2,0.5
		c-0.2,0.4-0.1,1.1-0.8,0.9c0.7,0.1,0.3,1.3,0,1.7c-0.1,0.4,0.4,0.3,0.3,0.7c0,0.3-0.2,0.5-0.4,0.5c0,0.5-0.3,0.6-0.3,1.1
		c-0.1,0.5,0.4,0.2,0.3,0.6c0.1,0.3,0.3,0.4,0.6,0.5c-0.1,0.4-0.8,0.2-1.2,0.2c-0.2-0.1-0.4-0.3-0.6-0.3c0,0,0,0,0,0
		c0-0.2-0.1-0.3-0.1-0.5c-0.3-0.3-0.3-0.9-0.6-1.2c0.3-0.7-0.1-1.1-0.2-2c0.2-0.4-0.1-0.7,0.1-1c0.1-0.4-0.3-0.1-0.2-0.5
		c0.2-0.3,0.6-0.3,0.5-0.9c-0.1-0.3-0.4,0.2-0.5-0.1c0.2-0.8,0-2.2,0.5-2.6c0.1-0.8-0.3-1.4,0-2c0-0.2-0.1-0.4-0.2-0.5
		c0.1-0.2,0.1-0.5,0.2-0.6c0-0.8-0.3-1.2-0.5-1.7c-0.6-0.1-0.8-0.8-1.2-1.1c-0.1-0.3,0.2-0.3,0.1-0.6c-0.6-0.3-1-0.6-0.9-1.6
		c0.2-0.1,0.4-0.1,0.5-0.2c-0.2-0.2-0.5-0.3-0.7-0.5c0.4-0.4-0.2-0.9,0-1.7c0.1-0.5,0.5-0.6,0.4-1.2c-0.1-0.3,0.2-0.2,0.2-0.5
		c-0.1-0.4-0.3-0.7-0.3-1.1c-0.2,0-0.2,0.3-0.3,0.5c-0.5-0.2-0.7-0.8-1.3-0.9c0-0.1,0-0.3,0-0.4c-0.2-0.2-0.4-0.3-0.5-0.6
		c-0.3,0-0.4-0.2-0.8-0.1c-0.2-0.3-0.3-0.5-0.4-0.9c-1,0.3-1.5-0.4-2.4-0.6c-0.2-0.5-0.5-1-0.4-1.8c-0.2-0.4-0.5-0.7-0.8-1
		c0-0.2,0-0.4-0.2-0.4c0,0.7,0.2,0.6,0.2,1.1c-0.3,0.1-0.3-0.2-0.6-0.1c-0.2-0.5-0.3-1-0.7-1.2c0-0.1,0-0.3,0.1-0.4
		C9,36.3,9,35.5,8.7,35c-0.1-0.1-0.2-0.2-0.3-0.3C9.5,29.3,11.8,24.4,15.2,20.3z M19.1,16.4c1.7-1.5,3.7-2.8,5.7-3.9
		c0,0.1,0.3,0,0.3,0.2c-0.2,0.7-0.8,0.4-1.3,0.6c-0.2,0,0.1,0.3,0,0.6c-0.4,0-0.6,0.2-0.7,0.5c-0.7-0.1-0.7,0.5-1.3,0.5
		c0.1,0.8-0.5,0.7-0.5,1.4c-0.2,0-0.5,0-0.7,0c-0.1,0.3,0.5-0.1,0.4,0.2c0,0.3-0.1,0.4-0.4,0.4c-0.2,0.9-1.3,0.2-2.1,0.4
		c0-0.1-0.1-0.2-0.2-0.3c0.1-0.1,0.3-0.2,0.4-0.4c0.3,0.1,0.6,0.2,1,0.1C19.6,16.5,19.4,16.4,19.1,16.4z M67.3,25.8
		c-0.2,0.2-0.3,0.3-0.4,0.6c0.2,0.6,0.5,0.2,0.8,0.1c0.2,0.4,0.3,0.7,0.5,1.1c0,0.6,0.2,1.3,0.1,2c-0.4,0.4-0.6,1-0.8,1.6
		c-0.3,0.1-0.6,0.3-0.8,0.5c-0.3,0.9,0.3,2.3-0.3,2.8c-0.3-0.2-0.6-0.3-0.5-1c-0.1-0.4-0.5-0.5-0.6-0.9c-0.7,0,0.1,0.6-0.2,0.7
		c0,0.2-0.1,0.3-0.3,0.2c0.1,0.4-0.1,0.3-0.1,0.6c0,0.4,0.2,0.5,0.4,0.6c0,0.4,0.1,0.6,0.3,0.7c-0.3,0.3-0.1,1.2-0.3,1.7
		c-0.1,0-0.1,0.2-0.3,0.1c-0.2,0.8-0.6,1.2-0.9,1.8c-0.6,0-1.1,0-1.2,0.5c0.2,0,0.3,0,0.4,0.1c-0.1,0.3-0.1,0.7-0.4,0.7
		c0.1,1.5-0.1,2.6-1.2,2.7c0-0.2,0-0.4-0.1-0.5c-0.4-0.1-0.6-0.5-0.8-0.9c-0.3,0-0.2,0.7-0.2,1.1c0.2,0.4,0.4,0.6,0.7,0.9
		c0,0.7,0.5,0.9,0.5,1.7c-0.6-0.4-1.1-1-1.6-1.5c0.1-0.6-0.2-0.6-0.2-1c-0.1-0.4,0.2-0.4,0.2-0.6c-0.1-0.4-0.2-0.6-0.5-0.7
		c0.2-0.4,0-0.5,0.1-0.7c-0.2-0.3-0.9,0-1.1-0.4c-0.1-0.3,0.2-0.3,0.1-0.6c-0.4-0.2-0.4-0.8-0.6-1.1c-0.4,0.1-0.7,0.3-0.9,0.5
		c-0.1,0.4-0.6,0.4-0.5,1c-0.3-0.1-0.1,0.4-0.5,0.2c0,0.2,0,0.3,0,0.5c-0.1,0-0.3,0-0.4,0c0.1,1.1-0.3,1.6-0.4,2.3
		c-0.3,0-0.6,0-0.7-0.1c0-0.2,0-0.5,0-0.7c-0.1-0.4-0.3-0.6-0.5-0.9c-0.2-0.6-0.3-1.2-0.6-1.6c0.1-0.4-0.2-0.5-0.1-0.9
		c-0.2-0.2-0.5-0.1-0.6-0.4c0-0.2,0-0.3,0.2-0.3c-0.5-0.2-0.6-0.7-1.4-0.6C51,38.2,51,38,50.9,38c-0.5,0-0.5,0.4-1,0.4
		c0.1-0.4-0.2-0.4-0.2-0.6c-1.1,0.1-0.9-1.2-1.5-1.6c-0.2,0.1-0.3,0.2-0.4,0.2c0.2,0.1,0.2,0.5,0.5,0.5c-0.1,0.6,0.3,0.8,0.4,1.2
		c0.2-0.2,0.4-0.3,0.8-0.3c-0.1,0.8,0.4,0.8,0.6,1.2c0,0.4-0.4,0.4-0.3,1c-0.4,0.1-0.6,0.5-1.1,0.6c-0.2,0-0.1,0.4-0.2,0.5
		c-0.8,0.1-1.4,0.7-2.1,1c-0.5-0.4-0.5-1.2-0.7-1.7c-0.4-0.5-0.7-1.2-1.1-1.7c0.1-0.2-0.2-0.9-0.4-1.1c-0.2,0,0.1,0.6,0,1
		c0.1,0.3,0.4,0.5,0.6,0.7c-0.2,0.9,0.5,0.8,0.4,1.6c0.4,0.5,0.9,0.8,0.9,1.6c0.3,0,0.6,0,0.9,0c0.4,0,0.4-0.4,0.8-0.4
		c0.3,0.3,0.2,0.9,0.1,1.4c-0.5,0.8-1,1.7-1.5,2.6c-0.3,0.2-0.5,0.4-0.7,0.6c-0.1,0.6-0.3,1.1-0.5,1.6c0.2,1,0.2,2.4,0,3.4
		c-0.8,0.5-1.2,1.4-1.3,2.8c-0.4-0.1-0.4,0.1-0.6,0.2c0.1,0.5-0.2,0.6-0.1,1.1c-0.5,0.3-0.8,0.8-0.9,1.5c-0.9,0.2-1.4,0.9-2.4,1
		c-0.5-0.6-0.5-1.8-0.9-2.5c0-0.4,0-0.7,0-1.1c-0.2-0.8-0.5-1.5-0.9-2c0.2-0.6,0.2-1.5,0.4-2.1c-0.1-0.6-0.1-1.3-0.4-1.7
		c0.2-0.9-0.3-1.3-0.6-2c0-0.8,0.3-1.3,0.2-2.2c-0.4-0.1-0.4,0.1-0.6,0.2c-0.4-0.1-0.6-0.3-1-0.2c-0.2-0.1,0-0.5-0.2-0.5
		c-0.4,0-0.4,0.4-0.6,0.6c-0.5,0-1.1,0-1.5,0.1c-0.7-0.1-1-0.7-1.5-1c-0.2-0.7-0.5-1.2-0.8-1.7c0-1.1,0-2.1,0-3.2
		c0.3-0.4,0.5-0.9,0.5-1.6c0.2-0.3,0.8-0.7,0.9-1c0.2-0.5,0.1-1.3,0.4-1.8c0.3-0.2,0.6-0.3,0.7-0.7c0.3,0,0.5,0.1,0.6,0.4
		c0.4-0.5,1.1-0.6,2-0.5c0.4-0.2,0.9-0.4,1.6-0.4c0.1,0.2,0.1,0.5-0.1,0.5c0.1,0.2,0.3,0.3,0.2,0.7c0.4,0.6,1.4,0.6,1.9,1.2
		c0.3-0.1,0.2-0.6,0.5-0.7c1,0,2,0.2,2.7,0.5c0.4-0.1,0.2-0.9,0.5-1.1c0-0.2,0-0.5,0-0.7c-0.5-0.2-0.1,0.7-0.5,0.6
		c-0.5,0,0.1-0.4-0.2-0.6c-0.3,0.2-1,0.3-1.4,0c-0.2-0.1-0.1-0.5-0.3-0.5c0.1-0.5,0-0.5,0.1-1c-0.1,0-0.2,0-0.3,0
		c-0.3,0.4,0.1,1-0.1,1.5c0.4-0.1,0.6,0,0.5,0.5c-0.3-0.3-0.6,0-0.6-0.4c0.1,0,0.1,0,0.1-0.1c-0.3,0-0.6,0-0.7-0.1
		c0-0.2,0-0.5,0-0.7c0-0.2-0.1-0.3-0.2-0.5c-0.1-0.1-0.1-0.4-0.2-0.5c-0.3-0.5-0.9-0.8-1.3-1.3c-0.3,1,1,1.1,1.3,1.7
		c-0.2,0.4-0.3-0.4-0.5,0c0,0.2,0.3,0.1,0.2,0.4c-0.2,0.2-0.6,0.3-0.5,0.9c-0.2-0.2-0.5-0.2-0.5-0.6c0.3,0,0.5,0,0.5-0.2
		c-0.1-0.5-0.4-0.7-0.9-0.7c-0.1-0.2-0.1-0.5-0.3-0.5c-0.1,0.7,0.4,1.3-0.3,1.4c-0.1-0.6-0.3-1.4,0-1.8c-0.4,0-0.6,0.4-1.1,0.1
		c-0.6,0-0.5,0.8-0.9,1c0.1,0.9-0.3,1.2-0.5,1.7c-0.4-0.2-0.4-0.2-0.8,0c-0.3-0.1-0.5-0.4-0.9-0.3c0.1-0.6-0.1-0.7-0.2-1.1
		c0.4,0,0.1-0.9,0.2-1.4c0.6,0.1,1.1-0.3,1.6,0c0.2,0,0.2-0.3,0.3-0.5c0.1-0.6-0.5-0.4-0.4-1c-0.3,0-0.6,0-0.7-0.1
		c0-0.4,0.3-0.4,0.5-0.5c0.3-0.2,0.4-0.5,0.8-0.5c0.1,0,0.1-0.1,0.1-0.2c-0.6,0-1.2,0-1.7,0.1c0-0.4,0.3-0.3,0.5-0.4
		c-0.1-0.3-0.3-0.6-0.2-1.1c0.2,0.2,0.6-0.1,0.5-0.5c-0.1-0.1-0.3-0.1-0.5-0.2c-0.1-0.6,0.2-0.9,0.1-1.6c0.2-0.1,0.4-0.3,0.8-0.2
		c0,0.3-0.2,0.4-0.3,0.5c0.1,0.2,0.3,0.2,0.4,0.4c-0.4,0.6,0.4,0.7,0.3,1.5c0.1,0.2,0.3,0.3,0.4,0.4c-0.4,0.4-0.3,0.7-0.4,1.2
		c0.5,0.1,0.1-0.8,0.7-0.6c-0.1-0.4,0.1-0.5,0.2-0.7c0.3-0.1,0.6-0.2,0.9-0.3c0-0.2,0-0.4-0.2-0.4c0-0.4,0.2-0.5,0.4-0.9
		c-0.2-0.2-0.7,0-0.8-0.4c0-0.6,0-1.1-0.2-1.4c0.2-0.6,0.3-1.3,0.9-1.4c0-0.2,0-0.3,0-0.5c0.1,0,0.3,0,0.3,0.1
		c0.3-0.3,0.5-0.8,0.6-1.4c0.4-0.4,0.9-0.8,1.3-1.2c0.2,0.1,0.3-0.2,0.3,0c0.3-0.2,0.6-0.5,0.8-0.7c0.3,0,0.6,0,0.9,0
		c0.2,0.2,0.4,0.5,0.5,0.7c0.4,0,0.7,0.2,0.8,0.5c0.7,0.1,1.5,0.5,1.3,1.2c0.6,0.1,0.6-0.5,0.6-1.2c0.1,0.1,0.4,0.1,0.6,0.1
		c0,0.2,0,0.5,0,0.7c0.5-0.2,0.8-0.6,1.3-0.9c0.7,0.1,1.1-0.1,1.6,0c0.1-0.6-0.6-0.1-0.4-0.7c0.7,0,0.7,0.3,1.4,0.2
		c0.4-0.4,0.8-0.8,1-1.3c0.5-0.2,0.5,0.3,0.6,0.5c0.5,0.2,0.2-0.5,0.6-0.4c0,0.3,0,0.6,0.1,0.7c0.3,0,0.2-0.4,0.2-0.7
		c0.6-0.1,0.7,0.4,1,0.5c0.1-0.6-0.5-0.3-0.5-0.7c-0.1-0.4,0.4-0.2,0.6-0.2c0.3,0,0.2-0.5,0.3-0.6c0.4,0,0.4-0.2,0.6-0.4
		c0.6,0.1,1-0.2,1.3-0.5c0.3-0.1,0.2,0.3,0.4,0.4c0.4,0.1,0.2-0.6,0.7-0.4c0-0.4,0.1-0.7,0.3-0.9c0.4-0.1,0.4,0.4,0.6,0.5
		c0.5,0,0.9,0,1.3-0.1c0.1,0.4,0.5,0.5,0.6,0.9c0,0.4-0.3,0.4-0.3,0.7c0.6-0.1,0.8,0.2,1,0.3c0.1,0,0.3-0.1,0.4,0
		c0.2,0.1,0.5,0.2,0.8,0.3C63.8,20.3,65.7,22.9,67.3,25.8z M69.6,31.4c0,0,0,0.1-0.1,0.1c-0.2,0-0.1-0.4-0.3-0.4
		c-0.4-0.1-0.3,0.6-0.6,0.2c0-0.5,0.2-0.8,0.1-1.4c0.2,0,0.4,0.1,0.5,0.2C69.3,30.6,69.4,31,69.6,31.4z M65.8,42.5
		c0.2-0.3,0.3-0.6,0.6-0.4c0-0.3,0-0.7,0.1-0.9c0.3,0,0.4,0.2,0.4,0.6c0.2,0.2,0.6,0.2,0.5,0.7c-0.5-0.1-0.8,0.1-0.9,0.5
		c-0.3-0.1-0.1-0.3-0.1-0.6C66.1,42.5,66,42.8,65.8,42.5z M66.1,47.5c-0.4,0.3-0.4-0.1-0.6-0.4c-0.2,0.1-0.2,0.4-0.2,0.7
		c-0.8-0.5-0.4-1.8,0.1-2.3c0.2,0.4,0.8,0.2,0.8,0.7c-0.1,0.2-0.4,0.2-0.5,0C65.7,46.9,66.1,47,66.1,47.5z M64.8,46.2
		c-0.3,0.2-0.2,0.9-0.5,1.1c0,0.1,0.1,0.1,0.2,0.1c0,0.2-0.3,0.1-0.3,0.4c-0.7,0.2-0.6-0.5-1.3-0.4c0-0.7-0.4-0.7-0.5-1.2
		c0.2-1.2,1.6-0.9,1.7-2.2c0.5,0,0.7,0.3,0.9,0.5c0.1,0.4-0.1,0.5-0.3,0.6C64.9,45.4,64.5,45.8,64.8,46.2z M64.1,49.1
		c-1.1,0.2-1.6-0.5-2.6-0.5c-0.1-0.4,0.1-0.5,0.2-0.7c0.6,0.2,1.2,0.5,2.1,0.5C63.8,48.8,64.2,48.7,64.1,49.1z M64.9,38.9
		c0-0.3-0.1-0.6-0.3-0.7c0.1-0.3,0.5-0.6,0.7-0.4C65.3,38.4,65.3,38.9,64.9,38.9z M66,39.9c0.1,0.6-0.3,0.7-0.4,1.1
		c-0.3-0.2-0.5-0.4-0.6-0.7C65,39.7,65.7,39.5,66,39.9z M68.5,45.8c0,0.5-0.8,0.6-1.1,0.4C67.4,45.6,68.2,45.6,68.5,45.8z M68.1,35
		C68,35,68,34.9,67.8,34.9c-0.3,0.2-0.6,0.4-0.6,0.9c-0.2-0.2-0.4-0.3-0.4-0.7c0.2,0,0.4,0,0.6,0c0-0.3-0.6,0.1-0.5-0.2
		c0-0.6,0.7-0.5,1.1-0.7c0.4-0.4,0.6-0.6,0.9-0.7c0-0.1,0-0.2,0.1-0.2c-0.2-0.6,0-0.9-0.1-1.5c0.1,0,0.3,0,0.4,0
		c0,0.9,0.2,1.6,0.2,2.5C69.2,34.5,68.5,34.6,68.1,35z M68.6,28.6c0.2,0.4,0.3,0.8,0.5,1.2C68.7,29.6,68.6,29.2,68.6,28.6z M59,44.4
		c0.3-0.1,0.5,0.4,0.5-0.1c0.2,0,0.1,0.3,0.4,0.2c-0.1,0.4,0.3,0.6,0.4,0.9c0.2,0.3,0.5,0.6,0.8,0.9c0,0.6,0.5,1.1,0.2,1.6
		c-0.5,0.3-0.6-0.5-1.2-0.6C60.5,45.5,59,45.8,59,44.4z M55.4,42.9c0.2,0.2,0.4,0.5,0.5,0.9c-0.3,0-0.2,0.4-0.5,0.4
		C55,43.8,55.6,43.6,55.4,42.9z M47.6,52.8c-0.1,0.1-0.2,0.1-0.2,0.3c0,0.2,0,0.4,0,0.6c-0.3,0.6-0.2,0.8-0.4,1.4
		c-0.4-0.1-0.5,0.1-0.8,0.1c-0.4-0.4-0.1-0.9-0.3-1.5c0.2-0.2,0.2-0.5,0.3-0.7c0-0.4-0.2-0.4-0.1-0.9c0.3-0.4,0.5-0.7,0.9-0.9
		c0.1-0.5,0.2-0.9,0.4-1.2c0.4-0.1,0,0.9,0.4,0.9C47.8,51.8,47.5,52.3,47.6,52.8z M23.9,64c0-0.4,0.5-0.5,0.4,0
		C24.2,64,24.1,64,23.9,64z M27.9,24c-0.2,0.1-0.3,0.4-0.4,0.6c-0.3,0-0.2-0.5-0.5-0.5c-0.2,0-0.5,0-0.7,0c-0.6-0.8,0-2.2-0.7-2.8
		c-0.1-0.4,0.5-0.5,0.2-0.6c0.2-0.3,0.5-0.4,0.7-0.6c-0.1-0.5-0.9-0.3-0.9-0.9c0.3,0,0.7,0.1,0.6-0.4c-0.3-0.4-0.3,0.4-0.7,0.1
		c-0.1-0.4,0.1-0.6,0.1-0.9c-0.1-0.3-0.3-0.6-0.2-1.1c-0.6,0.1-0.9-0.1-1.3-0.4c-0.3-0.1-0.2,0.3-0.5,0.2c-0.3-0.2-0.7-0.3-0.8-0.7
		C23,15.9,23.6,16,24,16c0-0.7-0.5-0.2-0.7-0.1c0-0.3-0.5-0.3-0.5,0c-0.2,0-0.2-0.3-0.5-0.2c0.1-0.5,0.5-0.5,0.7-0.4
		c0.3-0.3,0.8-0.3,1.2-0.6c0-0.4-0.5,0-0.4-0.5c1.1-0.1,1.6-0.9,2.6-1.1c0.7,0.2,1.1,0,1.9,0.1c0.2-0.1-0.1-0.6-0.1-0.9
		c0.2-0.3,0.8-0.2,1.3-0.2c0.4-0.3,1.5,0.1,1.9-0.3c0.2,0.1,0.4,0.1,0.5,0.3c0.2-0.3,0.6-0.2,0.9,0c0.6-0.1,1,0,1.3,0.4
		c-0.1,0.6-1,0.2-1.1,0.9c0.2,0.2,0.7-0.3,1.2-0.2c0.3-0.1,0.3,0.3,0.5,0.4c0.1,0.2,0.6-0.1,0.5,0.4c0.1,0.5-0.6,0.1-0.8,0.2
		c-0.4-0.1-0.3,0.4-0.6,0.4c-0.1,0.4,0.2,0.4,0.1,0.7c-0.4-0.1-0.3,0.3-0.6,0.2c0.3,0.3,0.8,0.2,0.8,0.7c-0.4,0-0.7,0-0.9,0.1
		c0.2,0.7,0.4,1.9-0.4,2c0.1,0.2,0.3,0.3,0.2,0.7c-0.2-0.1-0.3-0.2-0.4-0.2c-0.3,0.2,0.6,0.4,0.2,0.7c-0.6,0-0.8-0.3-1.2-0.5
		c-0.3-0.1-0.2,0.2-0.4,0.2c0.3,0,0.7,0.5,0.9,0.2c0.3,0.4-0.6,0.5-0.6,1c-0.5,0.1-0.8,0.6-1.3,0.7c-0.2,0.1-0.3,0.3-0.5,0.5
		c-0.4-0.3-0.4,0.2-0.8,0c-0.3,0-0.2,0.5-0.4,0.5C28.5,23,27.8,23,27.9,24z M39.6,14.5c0.1,0,0.4,0.4,0.4,0.1
		c0.3,0.5,0.9,0.5,0.8,1.5c-0.7,0.2-0.9-0.3-1.2-0.6c-0.1,0.4-0.2,0.9-0.3,1.4c-0.3,0-0.6,0-0.5-0.4c-0.4,0.1-0.6-0.1-0.7-0.2
		c0-0.6,0.5-0.6,0.5-1.1c-0.5-0.1-0.5,0.5-0.9,0.5c-0.2-0.2,0-0.3,0-0.6c-0.1-0.3-0.5-0.3-0.5-0.6c0-1.2,1-0.6,1.3,0
		c0.3-0.1-0.2-0.5,0.1-0.7c0.4-0.1,0.8,0.3,0.5,0.6C39.1,14.4,39.3,14.5,39.6,14.5z M39.5,13.4c0.8,0,1.8,0.1,2.7,0.2
		c0.1,0.6-0.4,0.4-0.4,0.7c-1,0.2-1.5-0.2-2.2-0.5C39.5,13.8,39.4,13.6,39.5,13.4z M34,27.4c-0.2,0.2-0.6,0.1-0.8,0.2
		c-0.2-0.2-0.1-0.6-0.1-1c0.2-0.2,0.4,0.2,0.4-0.4c0.2,0,0.3,0,0.5,0C34,26.9,33.9,26.9,34,27.4z M33.2,22.7
		c-0.3-0.1-0.2-0.7-0.7-0.5c-0.1-0.5,0.2-0.4,0.3-0.7c-0.3,0-0.2,0.2-0.5,0.1c0-0.5,0.6-0.3,0.4-0.9c0.4,0,0.3,0.4,0.6,0.5
		c0.4-0.2,0.6,0,1.1-0.1c0,0.5,0.3,0.6,0.2,1.2c-0.1,0.2-0.5,0.1-0.5,0.4C33.9,22.6,33.3,22.5,33.2,22.7z M47.3,17
		c0.6-0.3,1.2-0.6,2-0.7c0.1,0,0.1-0.2,0.1-0.3c0.2,0,0.3,0,0.5,0c-0.1,0.6-0.4,0.9-1,0.9c-0.6,0.3-0.8,0.9-1.6,1
		c-0.1,0.9,0.4,1,0.5,1.6c-0.2,0-0.3,0.1-0.3,0.3c-0.4-0.2-0.7-0.5-1.1-0.7c0-0.4,0.3-0.5,0.4-0.7C46.8,17.5,47.4,17.6,47.3,17z
		 M47.3,14.3c0-0.6,0.9-0.9,0.9-0.1C47.9,14.1,47.7,14.6,47.3,14.3z M54.3,14.1c0.6-0.3,1.5-0.1,1.8,0.4c-0.2,0.8-1.1,0.2-1.9,0.4
		C54.2,14.7,54,14.2,54.3,14.1z M19.6,22.7c-0.1,0.8-0.9-0.6-0.8,0.4c-0.4,0-0.7-0.1-0.7-0.5c0.5,0.1,0.4-0.4,0.5-0.6
		c0.3-0.1,0.3,0.2,0.6,0.1C19.5,22.4,19.2,22.6,19.6,22.7z M21.4,40.1c0.1,0.5-0.3,0.5-0.6,0.5c0-0.2,0-0.3,0-0.5
		C21,40.1,21.2,40.1,21.4,40.1z M18.5,39.7C18,39.6,18,39,17.5,38.9c-0.5-0.2-0.5,0.3-0.9,0.3c0-0.3,0.2-0.4,0.2-0.6
		c0.5,0,1.1,0,1.6,0c0.1,0.4,0.4,0.4,0.6,0.5c0,0.2,0.3,0.1,0.2,0.5c0.6,0,1.2-0.1,1.4,0.7c-0.3,0-0.7-0.1-0.7,0.2
		c-0.2-0.1-0.4-0.3-0.7-0.2c-0.1-0.3-0.2-0.5,0.2-0.5C19.2,39.5,18.7,39.8,18.5,39.7z M18.7,40.4c-0.4,0.2-0.4,0-0.7,0.1
		c0-0.2,0-0.3,0-0.5C18.3,40.1,18.8,39.9,18.7,40.4z M18.1,38.3c0-0.2,0-0.3,0-0.5c0.3,0,0.4,0.2,0.4,0.5
		C18.3,38.3,18.2,38.3,18.1,38.3z M18.8,37.8c0.1,0,0.2,0,0.3,0c0.1,0.1,0.1,0.3,0.1,0.6C18.8,38.5,18.8,38.3,18.8,37.8z M19.3,38.9
		c0-0.2,0-0.4,0-0.6c0.3,0,0.4,0.2,0.4,0.5c0.2,0,0.4,0,0.4,0.1c0.1,0.4-0.6,0.3-0.4-0.1C19.6,38.9,19.5,39,19.3,38.9z M69.7,48.9
		c0-0.2,0-0.5,0-0.7c-0.4-0.5-1-0.8-1.5-1.2c-0.3-0.2-0.5,0.3-0.5,0c-0.1-0.4,0.3-0.2,0.3-0.5c0.3-0.1,0.2,0.3,0.5,0.3
		c0.3,0,0.3-0.2,0.4-0.4c0.2,0,0.5,0,0.7,0c0.2,0.1,0.4,0.2,0.5,0.3C70.1,47.4,69.9,48.1,69.7,48.9z"/>
</g>
<g id="圖層_8" class="st0">
	<g class="st1">
		<g>
			<path class="st9" d="M23.2,64.1c-0.9,0-1.9-0.4-2.5-1.2c-6.9-8.6-5.8-20.2-5.8-20.7c0.2-1.6,1.5-2.9,3.2-2.9h52.1
				c1.8,0,3.2,1.4,3.2,3.2c0,1.8-1.4,3.2-3.2,3.2H21.3c0.1,3.3,0.9,8.9,4.4,13.2c1.1,1.4,0.9,3.4-0.5,4.5
				C24.6,63.9,23.9,64.1,23.2,64.1z"/>
		</g>
		<g>
			<path class="st9" d="M71.4,40.4c-1.7,0-3.1-1.3-3.2-2.9c-0.2-3.1-1-6.2-2.1-9.2c-3-7.8-13.2-8.8-18.2-8.8c0,0,0,0-0.1,0v16.7
				c0,1.8-1.4,3.2-3.2,3.2c-1.8,0-3.2-1.4-3.2-3.2V16.3c0-1.6,1.2-3,2.8-3.2c0.9-0.1,22-2.3,27.8,12.8c1.4,3.6,2.3,7.3,2.6,11
				c0.1,1.8-1.2,3.3-2.9,3.4C71.6,40.4,71.5,40.4,71.4,40.4z"/>
		</g>
		<g>
			<path class="st9" d="M64.7,64.1c-0.8,0-1.5-0.3-2.1-0.8c-1.3-1.2-1.5-3.2-0.3-4.5c3.3-3.7,4.2-8.8,4.6-16.4
				c0.1-1.8,1.6-3.1,3.4-3c1.8,0.1,3.1,1.6,3,3.4c-0.4,7.2-1.3,14.7-6.2,20.3C66.5,63.7,65.6,64.1,64.7,64.1z"/>
		</g>
		<g>
			<path class="st9" d="M16.9,45.9c-0.9,0-1.9-0.4-2.5-1.2l-4.3-5.4H6.2c-1.8,0-3.2-1.4-3.2-3.2c0-1.8,1.4-3.2,3.2-3.2h5.4
				c1,0,1.9,0.4,2.5,1.2l5.3,6.5c1.1,1.4,0.9,3.4-0.5,4.5C18.3,45.6,17.6,45.9,16.9,45.9z"/>
		</g>
		<g>
			<path class="st9" d="M56.7,72.7c-4.7,0-8.5-3.8-8.5-8.5c0-4.7,3.8-8.5,8.5-8.5s8.5,3.8,8.5,8.5C65.3,68.9,61.4,72.7,56.7,72.7z
				 M56.7,62c-1.2,0-2.1,1-2.1,2.1c0,1.2,1,2.1,2.1,2.1s2.1-1,2.1-2.1C58.9,63,57.9,62,56.7,62z"/>
		</g>
		<g>
			<path class="st9" d="M31,72.7c-4.7,0-8.5-3.8-8.5-8.5c0-4.7,3.8-8.5,8.5-8.5s8.5,3.8,8.5,8.5C39.6,68.9,35.7,72.7,31,72.7z
				 M31,62c-1.2,0-2.1,1-2.1,2.1c0,1.2,1,2.1,2.1,2.1s2.1-1,2.1-2.1C33.2,63,32.2,62,31,62z"/>
		</g>
		<g>
			<path class="st9" d="M51.7,66h-9.3c-1.8,0-3.2-1.4-3.2-3.2s1.4-3.2,3.2-3.2h9.3c1.8,0,3.2,1.4,3.2,3.2S53.5,66,51.7,66z"/>
		</g>
	</g>
</g>
<g id="圖層_9" class="st0">
	<g class="st1">
		<g>
			<path d="M49.4,60H31.6c-3.9,0-7.1-3.2-7.1-7.1V42.3c0-3.9,3.2-7.1,7.1-7.1h17.8c3.9,0,7.1,3.2,7.1,7.1v10.6
				C56.5,56.8,53.3,60,49.4,60z M49.4,42.3l-17.7,0l0,10.6h17.8L49.4,42.3z"/>
		</g>
		<g>
			<path d="M52.9,32.1h-7.1c0-3.1-2.7-4.4-5.3-4.4s-5.3,1.4-5.3,4.4h-7.1c0-6.6,5.3-11.5,12.4-11.5S52.9,25.5,52.9,32.1z"/>
		</g>
		<g>
			<path d="M40.5,76C20.9,76,5,60.1,5,40.5S20.9,5,40.5,5S76,20.9,76,40.5S60.1,76,40.5,76z M40.5,12.1c-15.7,0-28.4,12.7-28.4,28.4
				s12.7,28.4,28.4,28.4s28.4-12.7,28.4-28.4S56.2,12.1,40.5,12.1z"/>
		</g>
		<g>
			<rect x="45.8" y="32.1" width="7.1" height="8.4"/>
		</g>
	</g>
</g>
<g id="圖層_10">
	<g id="icon_113_">
		<path class="st10" d="M31.3,57C17.2,57,5.8,45.6,5.8,31.5S17.2,6,31.3,6c14.1,0,25.5,11.4,25.5,25.5S45.3,57,31.3,57z M31.3,14.5
			c-9.4,0-17,7.6-17,17s7.6,17,17,17c9.4,0,17-7.6,17-17S40.6,14.5,31.3,14.5z"/>
		<path class="st10" d="M69.5,74c-1.1,0-2.2-0.4-3-1.2L45.3,51.5c-1.7-1.7-1.7-4.3,0-6c1.7-1.7,4.3-1.7,6,0l21.2,21.2
			c1.7,1.7,1.7,4.3,0,6C71.7,73.6,70.6,74,69.5,74z"/>
	</g>
</g>
</svg>
