<?xml version="1.0" encoding="UTF-8"?>
<svg width="26px" height="20px" viewBox="0 0 26 20" version="1.1" xmlns="http://www.w3.org/2000/svg" xmlns:xlink="http://www.w3.org/1999/xlink">
    <!-- Generator: Sketch 51 (57462) - http://www.bohemiancoding.com/sketch -->
    <title>comment-icon</title>
    <desc>Created with Sketch.</desc>
    <defs></defs>
    <g id="Page-1" stroke="none" stroke-width="1" fill="none" fill-rule="evenodd">
        <g id="完整畫面---下拉式留言提示" transform="translate(-15.000000, -2420.000000)" fill="#989898" fill-rule="nonzero">
            <g id="Article" transform="translate(15.000000, 252.000000)">
                <g id="Comments" transform="translate(0.000000, 2166.000000)">
                    <g id="comment" transform="translate(0.000000, 2.000000)">
                        <path d="M7.25,14.13 L7,14.28 L7,12 C7,11.4477153 6.55228475,11 6,11 L4,11 C2.8954305,11 2,10.1045695 2,9 L2,4 C2,2.8954305 2.8954305,2 4,2 L14.77,2 C15.3393965,2.00105047 15.8813517,2.24474845 16.26,2.67 C16.4925515,2.95958515 16.8664394,3.09643263 17.2309842,3.02539192 C17.5955291,2.9543512 17.8906733,2.68712604 17.9974716,2.33141007 C18.10427,1.97569409 18.0051278,1.59009039 17.74,1.33 C16.9762532,0.477991683 15.8841982,-0.00615272036 14.74,-2.11608508e-13 L4,-2.11608508e-13 C1.790861,-2.11743776e-13 2.705415e-16,1.790861 0,4 L0,9 C2.705415e-16,11.209139 1.790861,13 4,13 L5,13 L5,16 C5.00214346,16.3551111 5.19245546,16.6824477 5.5,16.86 C5.64929352,16.9547742 5.82319878,17.0034676 6,17 C6.17517638,17.0012098 6.34759709,16.9563804 6.5,16.87 L8.25,15.87 C8.56082108,15.6913672 8.75273213,15.3604826 8.75344213,15.0019873 C8.75415213,14.643492 8.5635532,14.3118498 8.25344212,14.1319873 C7.94333104,13.9521247 7.56082106,13.9513672 7.25,14.13 Z M15,10 C14.4477153,10 14,10.4477153 14,11 C14,11.5522847 14.4477153,12 15,12 C15.5522847,12 16,11.5522847 16,11 C16,10.4477153 15.5522847,10 15,10 Z M22,4 L13,4 C10.790861,4 9,5.790861 9,8 L9,13 C9,15.209139 10.790861,17 13,17 L16.67,17 L20.4,19.8 C20.5730962,19.9298221 20.7836298,20 21,20 C21.1019644,19.9987267 21.2031342,19.981865 21.3,19.95 C21.6047515,19.8556988 21.8462236,19.6216565 21.95,19.32 L22.74,16.93 C24.6302092,16.5741692 25.9995412,14.92341 26,13 L26,8 C26,5.790861 24.209139,4 22,4 Z M24,13 C24,14.1045695 23.1045695,15 22,15 C21.5700841,14.9988902 21.1875721,15.2726883 21.05,15.68 L20.49,17.37 L17.6,15.2 C17.4269038,15.0701779 17.2163702,15 17,15 L13,15 C11.8954305,15 11,14.1045695 11,13 L11,8 C11,6.8954305 11.8954305,6 13,6 L22,6 C23.1045695,6 24,6.8954305 24,8 L24,13 Z M21,10 C20.4477153,10 20,10.4477153 20,11 C20,11.5522847 20.4477153,12 21,12 C21.5522847,12 22,11.5522847 22,11 C22,10.4477153 21.5522847,10 21,10 Z M18,10 C17.4477153,10 17,10.4477153 17,11 C17,11.5522847 17.4477153,12 18,12 C18.5522847,12 19,11.5522847 19,11 C19,10.4477153 18.5522847,10 18,10 Z" id="comment-icon"></path>
                    </g>
                </g>
            </g>
        </g>
    </g>
</svg>