<?xml version="1.0" encoding="UTF-8"?>
<svg width="74px" height="61px" viewBox="0 0 74 61" version="1.1" xmlns="http://www.w3.org/2000/svg" xmlns:xlink="http://www.w3.org/1999/xlink">
    <!-- Generator: Sketch 50.2 (55047) - http://www.bohemiancoding.com/sketch -->
    <title>icon-user-wf</title>
    <desc>Created with Sketch.</desc>
    <defs></defs>
    <g id="Page-1" stroke="none" stroke-width="1" fill="none" fill-rule="evenodd">
        <g id="icon-user-wf" transform="translate(-5.000000, -6.000000)" fill="#9B9B9B" fill-rule="nonzero">
            <g id="圖層_14" transform="translate(5.000000, 6.000000)">
                <g id="icon_54_">
                    <path d="M3.7,60.9 C2.5,60.9 1.3,60.3 0.6,59.2 C-0.5,57.5 -1.11022302e-16,55.2 1.8,54.1 L17.6,44.1 C20.6,42 24.7,41.7 28.3,43.5 C32.5,45.5 42.4,45.4 46.3,43.4 C49.6,41.7 53.6,41.8 56.7,43.8 L72.2,54.2 C73.9,55.3 74.4,57.6 73.2,59.3 C72.1,61 69.8,61.4 68.1,60.3 L52.6,50 C51.8,49.5 50.7,49.4 49.7,50 C43.8,53.1 31.3,53.2 25.1,50.2 C23.9,49.6 22.6,49.7 21.7,50.3 L5.7,60.4 C5.1,60.7 4.4,60.9 3.7,60.9 Z" id="Shape"></path>
                    <path d="M36.7,36.9 C26.5,36.9 18.2,28.6 18.2,18.4 C18.2,8.2 26.6,0 36.7,0 C46.9,0 55.2,8.3 55.2,18.5 C55.2,28.7 46.9,36.9 36.7,36.9 Z M36.7,7.4 C30.6,7.4 25.6,12.4 25.6,18.5 C25.6,24.6 30.6,29.6 36.7,29.6 C42.8,29.6 47.8,24.6 47.8,18.5 C47.8,12.4 42.8,7.4 36.7,7.4 Z" id="Shape"></path>
                </g>
            </g>
        </g>
    </g>
</svg>