<?xml version="1.0" encoding="UTF-8"?>
<svg width="14px" height="19px" viewBox="0 0 14 19" version="1.1" xmlns="http://www.w3.org/2000/svg" xmlns:xlink="http://www.w3.org/1999/xlink">
    <!-- Generator: Sketch 51 (57462) - http://www.bohemiancoding.com/sketch -->
    <title>collect-icon</title>
    <desc>Created with Sketch.</desc>
    <defs></defs>
    <g id="Page-1" stroke="none" stroke-width="1" fill="none" fill-rule="evenodd">
        <g id="Line-floating-button" transform="translate(-243.000000, -107.000000)" fill="#FFFFFF" fill-rule="nonzero">
            <g id="Buttons" transform="translate(0.000000, 94.000000)">
                <g id="收藏" transform="translate(234.000000, 6.000000)">
                    <path d="M10.8161115,25.0911458 C10.5654629,25.0877202 10.3180769,25.0338027 10.0887355,24.9326151 C9.41597366,24.5959621 8.99553097,23.9036815 9.0069969,23.1514765 L9.0069969,11.0285438 C8.94580914,10.0205582 9.2878529,9.02959637 9.95777708,8.27396387 C10.6277013,7.51833138 11.5705437,7.06002208 12.5785994,7 L19.4233937,7 C21.5073107,7.12522367 23.1010922,8.90626415 22.9949962,10.9912425 L22.9949962,23.1141752 C23.0083457,23.8718229 22.5833968,24.5691749 21.9039323,24.9046391 C21.2893735,25.2020795 20.5569483,25.1068642 20.0388657,24.6621805 L16.0009966,21.28641 L11.9258261,24.7181325 C11.6114769,24.9694321 11.2184281,25.1015493 10.8161115,25.0911458 Z M12.5785994,8.99562123 C11.6109281,9.14410346 10.9227629,10.015508 11.0026181,10.9912425 L11.0026181,22.8530659 L15.3575486,19.2255114 C15.7277765,18.9080445 16.2742166,18.9080445 16.6444445,19.2255114 L20.9900496,22.8530659 L20.9900496,10.9912425 C21.0699049,10.015508 20.3817397,9.14410346 19.4140684,8.99562123 L12.5785994,8.99562123 Z" id="collect-icon"></path>
                </g>
            </g>
        </g>
    </g>
</svg>