<?xml version="1.0" encoding="UTF-8"?>
<svg width="16px" height="16px" viewBox="0 0 16 16" version="1.1" xmlns="http://www.w3.org/2000/svg" xmlns:xlink="http://www.w3.org/1999/xlink">
    <!-- Generator: Sketch 51 (57462) - http://www.bohemiancoding.com/sketch -->
    <title>calendar</title>
    <desc>Created with Sketch.</desc>
    <defs></defs>
    <g id="Page-1" stroke="none" stroke-width="1" fill="none" fill-rule="evenodd">
        <g id="完整畫面---下拉式留言提示" transform="translate(-19.000000, -3253.000000)" fill="#A8A8A8" fill-rule="nonzero">
            <g id="Article-2" transform="translate(14.000000, 3175.000000)">
                <g id="icon-calendar" transform="translate(1.000000, 74.000000)">
                    <path d="M9.86005841,10.6716111 C9.86005841,11.1355303 9.4839776,11.5116111 9.02005841,11.5116111 L8.18005841,11.5116111 C7.86086262,11.5400191 7.55298168,11.3857804 7.38461284,11.1131178 C7.21624399,10.8404552 7.21624399,10.4961004 7.38461284,10.2234378 C7.55298168,9.95077518 7.86086262,9.79653647 8.18005841,9.82494447 L9.02005841,9.82494447 C9.24400016,9.82493741 9.458674,9.91435171 9.61639761,10.0733271 C9.77412121,10.2323025 9.86183572,10.4476764 9.86005841,10.6716111 Z M12.3867251,9.82494447 L11.5467251,9.82494447 C11.1099374,9.86381798 10.7751139,10.2297637 10.7751139,10.6682778 C10.7751139,11.1067919 11.1099374,11.4727376 11.5467251,11.5116111 L12.3867251,11.5116111 C12.8235128,11.4727376 13.1583362,11.1067919 13.1583362,10.6682778 C13.1583362,10.2297637 12.8235128,9.86381798 12.3867251,9.82494447 Z M15.7200584,9.82494447 L14.9133917,9.82494447 C14.476604,9.86381798 14.1417806,10.2297637 14.1417806,10.6682778 C14.1417806,11.1067919 14.476604,11.4727376 14.9133917,11.5116111 L15.7533917,11.5116111 C16.0725875,11.5400191 16.3804685,11.3857804 16.5488373,11.1131178 C16.7172062,10.8404552 16.7172062,10.4961004 16.5488373,10.2234378 C16.3804685,9.95077518 16.0725875,9.79653647 15.7533917,9.82494447 L15.7200584,9.82494447 Z M9.02005841,12.3516111 L8.18005841,12.3516111 C7.86086262,12.3232031 7.55298168,12.4774418 7.38461284,12.7501044 C7.21624399,13.022767 7.21624399,13.3671219 7.38461284,13.6397845 C7.55298168,13.9124471 7.86086262,14.0666858 8.18005841,14.0382778 L9.02005841,14.0382778 C9.45684611,13.9994043 9.79166954,13.6334586 9.79166954,13.1949445 C9.79166954,12.7564303 9.45684611,12.3904847 9.02005841,12.3516111 Z M12.3867251,12.3516111 L11.5467251,12.3516111 C11.1099374,12.3904847 10.7751139,12.7564303 10.7751139,13.1949445 C10.7751139,13.6334586 11.1099374,13.9994043 11.5467251,14.0382778 L12.3867251,14.0382778 C12.8235128,13.9994043 13.1583362,13.6334586 13.1583362,13.1949445 C13.1583362,12.7564303 12.8235128,12.3904847 12.3867251,12.3516111 Z M15.7200584,12.3516111 L14.9133917,12.3516111 C14.476604,12.3904847 14.1417806,12.7564303 14.1417806,13.1949445 C14.1417806,13.6334586 14.476604,13.9994043 14.9133917,14.0382778 L15.7533917,14.0382778 C16.0725875,14.0666858 16.3804685,13.9124471 16.5488373,13.6397845 C16.7172062,13.3671219 16.7172062,13.022767 16.5488373,12.7501044 C16.3804685,12.4774418 16.0725875,12.3232031 15.7533917,12.3516111 L15.7200584,12.3516111 Z M9.02005841,14.8782778 L8.18005841,14.8782778 C7.86086262,14.8498698 7.55298168,15.0041085 7.38461284,15.2767711 C7.21624399,15.5494337 7.21624399,15.8937886 7.38461284,16.1664512 C7.55298168,16.4391138 7.86086262,16.5933525 8.18005841,16.5649445 L9.02005841,16.5649445 C9.45684611,16.5260709 9.79166954,16.1601253 9.79166954,15.7216111 C9.79166954,15.283097 9.45684611,14.9171513 9.02005841,14.8782778 Z M12.3867251,14.8782778 L11.5467251,14.8782778 C11.1099374,14.9171513 10.7751139,15.283097 10.7751139,15.7216111 C10.7751139,16.1601253 11.1099374,16.5260709 11.5467251,16.5649445 L12.3867251,16.5649445 C12.8235128,16.5260709 13.1583362,16.1601253 13.1583362,15.7216111 C13.1583362,15.283097 12.8235128,14.9171513 12.3867251,14.8782778 Z M15.7200584,14.8782778 L14.9133917,14.8782778 C14.476604,14.9171513 14.1417806,15.283097 14.1417806,15.7216111 C14.1417806,16.1601253 14.476604,16.5260709 14.9133917,16.5649445 L15.7533917,16.5649445 C16.0725875,16.5933525 16.3804685,16.4391138 16.5488373,16.1664512 C16.7172062,15.8937886 16.7172062,15.5494337 16.5488373,15.2767711 C16.3804685,15.0041085 16.0725875,14.8498698 15.7533917,14.8782778 L15.7200584,14.8782778 Z M19.9667251,7.26494447 L19.9667251,15.7182778 C19.966855,17.5658085 18.4807926,19.0697037 16.6333917,19.0916111 L7.33339174,19.0916111 C5.4859909,19.0697037 3.99992852,17.5658085 4.00005841,15.7182778 L4.00005841,7.26494447 C3.9925714,6.37055781 4.70582606,5.63649989 5.60005841,5.6182778 L7.33339174,5.6182778 L7.33339174,4.77161113 C7.37226526,4.33482342 7.73821093,4 8.17672507,4 C8.61523921,4 8.98118489,4.33482342 9.02005841,4.77161113 L9.02005841,5.6182778 L14.9133917,5.6182778 L14.9133917,4.77161113 C14.9522653,4.33482342 15.3182109,4 15.7567251,4 C16.1952392,4 16.5611849,4.33482342 16.6000584,4.77161113 L16.6000584,5.6182778 L18.3200584,5.6182778 C19.2294873,5.6182778 19.9667251,6.35551558 19.9667251,7.26494447 Z M18.2800584,7.26494447 L16.6333917,7.26494447 L16.6333917,8.14494447 C16.5945182,8.58173217 16.2285725,8.9165556 15.7900584,8.9165556 C15.3515443,8.9165556 14.9855986,8.58173217 14.9467251,8.14494447 L14.9467251,7.26494447 L9.02005841,7.26494447 L9.02005841,8.14494447 C8.98118489,8.58173217 8.61523921,8.9165556 8.17672507,8.9165556 C7.73821093,8.9165556 7.37226526,8.58173217 7.33339174,8.14494447 L7.33339174,7.26494447 L5.60005841,7.26494447 L5.65339174,15.6849445 C5.65161904,16.1316621 5.82783564,16.5606914 6.1430891,16.8771958 C6.45834256,17.1937003 6.88667055,17.3716146 7.33339174,17.3716111 L16.6333917,17.3716111 C17.0801129,17.3716146 17.5084409,17.1937003 17.8236944,16.8771958 C18.1389478,16.5606914 18.3151644,16.1316621 18.3133917,15.6849445 L18.2800584,7.26494447 Z" id="calendar"></path>
                </g>
            </g>
        </g>
    </g>
</svg>