<?xml version="1.0" encoding="UTF-8"?>
<svg width="27px" height="27px" viewBox="0 0 27 27" version="1.1" xmlns="http://www.w3.org/2000/svg" xmlns:xlink="http://www.w3.org/1999/xlink">
    <!-- Generator: Sketch 47.1 (45422) - http://www.bohemiancoding.com/sketch -->
    <title>duplicate</title>
    <desc>Created with Sketch.</desc>
    <defs></defs>
    <g id="article" stroke="none" stroke-width="1" fill="none" fill-rule="evenodd">
        <g id="iPhone-7-Copy-7" transform="translate(-285.000000, -488.000000)" fill="#000000">
            <g id="Group-9-Copy-5" transform="translate(269.000000, 471.000000)">
                <path d="M35.4420488,42.53743 L35.4420488,39.4189892 C35.4420488,38.9286223 35.0445854,38.5310592 34.5543415,38.5310592 C34.0640976,38.5310592 33.6666341,38.9286223 33.6666341,39.4189892 L33.6666341,42.157725 L17.7754146,42.157725 L17.7754146,26.2692518 L20.505561,26.2692518 C20.9958049,26.2692518 21.3932683,25.8716887 21.3932683,25.3813218 C21.3932683,24.8909549 20.9958049,24.4933918 20.505561,24.4933918 L17.3958049,24.4933918 C16.6260488,24.4933918 16,25.1195976 16,25.8895468 L16,42.53743 C16,43.3073792 16.6260488,43.933585 17.3958049,43.933585 L34.0459512,43.933585 C34.8157073,43.933585 35.4420488,43.3073792 35.4420488,42.53743 L35.4420488,42.53743 Z M25.2601951,34.664626 L40.5596098,34.664626 L40.5596098,19.3678134 L25.2601951,19.3678134 L25.2601951,34.664626 Z M41.7432195,37.0321466 L24.0765854,37.0321466 C23.4230244,37.0321466 22.8929756,36.5022576 22.8929756,35.8485327 L22.8929756,18.1839067 C22.8929756,17.5301818 23.4230244,17 24.0765854,17 L41.7432195,17 C42.3967805,17 42.9268293,17.5301818 42.9268293,18.1839067 L42.9268293,35.8485327 C42.9268293,36.5022576 42.3967805,37.0321466 41.7432195,37.0321466 L41.7432195,37.0321466 Z" id="duplicate"></path>
            </g>
        </g>
    </g>
</svg>