<?xml version="1.0" encoding="UTF-8"?>
<svg width="22px" height="18px" viewBox="0 0 22 18" version="1.1" xmlns="http://www.w3.org/2000/svg" xmlns:xlink="http://www.w3.org/1999/xlink">
    <!-- Generator: Sketch 51 (57462) - http://www.bohemiancoding.com/sketch -->
    <title>book</title>
    <desc>Created with Sketch.</desc>
    <defs></defs>
    <g id="Page-1" stroke="none" stroke-width="1" fill="none" fill-rule="evenodd">
        <g id="完整畫面---下拉式留言提示" transform="translate(-17.000000, -5193.000000)" fill="#989898" fill-rule="nonzero">
            <g id="Article-2" transform="translate(14.000000, 3175.000000)">
                <g id="熱門推薦" transform="translate(1.000000, 2014.000000)">
                    <g id="book" transform="translate(2.000000, 4.000000)">
                        <path d="M14,11 L18,11 L18,9 L14,9 L14,11 Z M14,7 L18,7 L18,5 L14,5 L14,7 Z M4,11 L8,11 L8,9 L4,9 L4,11 Z M4,7 L8,7 L8,5 L4,5 L4,7 Z M20,14 L14,14 C12.9181489,14 11.8654809,14.3508894 11,15 C10.1345191,14.3508894 9.08185107,14 8,14 L2,14 L2,2 L8,2 C9.1045695,2 10,2.8954305 10,4 L10,11 C10,11.5522847 10.4477153,12 11,12 C11.5522847,12 12,11.5522847 12,11 L12,4 C12,2.8954305 12.8954305,2 14,2 L20,2 L20,14 Z M14,0 C12.8510914,0.00145486782 11.7582794,0.496862982 11,1.36 C10.2417206,0.496862982 9.14890861,0.00145486782 8,4.4408921e-16 L0,0 L0,16 L8,16 C8.85853962,15.9960211 9.67764332,16.3600672 10.25,17 C10.6147578,17.4137044 11.2456033,17.4539711 11.66,17.09 L11.75,17 C12.3223567,16.3600672 13.1414604,15.9960211 14,16 L22,16 L22,0 L14,0 Z"></path>
                    </g>
                </g>
            </g>
        </g>
    </g>
</svg>