<?xml version="1.0" encoding="UTF-8"?>
<svg width="17px" height="31px" viewBox="0 0 17 31" version="1.1" xmlns="http://www.w3.org/2000/svg" xmlns:xlink="http://www.w3.org/1999/xlink">
    <!-- Generator: Sketch 47.1 (45422) - http://www.bohemiancoding.com/sketch -->
    <title>icon-fb</title>
    <desc>Created with Sketch.</desc>
    <defs></defs>
    <g id="Page-1" stroke="none" stroke-width="1" fill="none" fill-rule="evenodd">
        <g id="icon-fb" fill-rule="nonzero" fill="#FFFFFF">
            <path d="M16,0 L12,0 C7.70134118,0 4.74092247,2.99444462 5,8 L5,11 L1,11 C0.286882565,11.1466871 0,11.4298451 0,12 L0,17 C0,17.2249098 0.287209683,17.5077453 1,18 L5,18 L5,30 C4.74092247,30.7171645 5.02780504,31 5,31 L11,31 C11.0853778,31 11.3722604,30.716842 11,30 L11,18 L16,18 C16.5201178,17.5077453 16.8070003,17.2249098 17,17 L17,12 C16.808963,11.6114145 16.7412496,11.4508078 17,11 C16.5011449,11.2134453 16.3375859,11.1466871 16,11 L11,11 L11,8 C11.3722604,6.7316147 11.7186784,6.0040469 14,6 L16,6 C16.7131174,6.00307939 17,5.71992135 17,5 L17,1 C17,0.28993061 16.7134446,0.0070950761 16,0 Z" id="Shape"></path>
        </g>
    </g>
</svg>