<?xml version="1.0" encoding="UTF-8"?>
<svg width="83px" height="67px" viewBox="0 0 83 67" version="1.1" xmlns="http://www.w3.org/2000/svg" xmlns:xlink="http://www.w3.org/1999/xlink">
    <!-- Generator: Sketch 51.2 (57519) - http://www.bohemiancoding.com/sketch -->
    <title>logo</title>
    <desc>Created with Sketch.</desc>
    <defs></defs>
    <g id="Page-1" stroke="none" stroke-width="1" fill="none" fill-rule="evenodd">
        <g id="Desktop-HD" transform="translate(-220.000000, -7047.000000)" fill="#FFFFFF">
            <g id="footer" transform="translate(0.000000, 7026.000000)">
                <g id="logo" transform="translate(220.000000, 21.000000)">
                    <path d="M76,14 C79.8651667,14 83,10.8651667 83,7 C83,3.13483333 79.8651667,0 76,0 C72.1348333,0 69,3.13483333 69,7 C69,10.8651667 72.1348333,14 76,14" id="Fill-1"></path>
                    <path d="M76.2253521,21.3499969 C73.0492958,21.3499969 70.4507042,23.9178096 70.4507042,27.0562473 L70.4507042,55.5874992 L27.207831,55.5874992 L56.4668169,20.2897756 C56.531493,20.2110294 56.5719155,20.1208706 56.6331268,20.0387006 C56.7232113,19.9154456 56.8040563,19.7876256 56.8849014,19.6586643 C57.0015493,19.4680756 57.1112676,19.2774868 57.203662,19.0789093 C57.269493,18.9385355 57.3226197,18.794738 57.3769014,18.648658 C57.4508169,18.447798 57.5178028,18.2492205 57.5686197,18.0437955 C57.6078873,17.8828792 57.6332958,17.7196804 57.6587042,17.5530579 C57.6898873,17.3476329 57.7141408,17.1444904 57.7222254,16.9379241 C57.7256901,16.8591779 57.7464789,16.7849966 57.7464789,16.7062504 C57.7464789,16.6092441 57.7222254,16.5202266 57.7176056,16.4243616 C57.7072113,16.2177953 57.6875775,16.0146528 57.6540845,15.8103691 C57.6275211,15.6471703 57.596338,15.4873953 57.5559155,15.3287615 C57.5027887,15.1153478 57.4358028,14.9087815 57.3584225,14.7022152 C57.3087606,14.5743952 57.2590986,14.4511402 57.2013521,14.3278852 C57.0962535,14.098494 56.9726761,13.8782327 56.8340845,13.6625364 C56.7809577,13.5780839 56.7255211,13.4947727 56.6666197,13.4137439 C56.5072394,13.1900589 56.3305352,12.9800689 56.136507,12.7780676 C56.071831,12.7118751 56.006,12.6479651 55.9378592,12.5840551 C55.8269859,12.4802013 55.7334366,12.3615113 55.612169,12.2645051 C55.5116901,12.1846176 55.399662,12.1321201 55.2945634,12.0590801 C55.2114085,12.0008763 55.1247887,11.9472376 55.0370141,11.8924576 C54.809493,11.7509426 54.578507,11.6231225 54.3382817,11.515845 C54.2274085,11.4667713 54.1130704,11.4268275 53.9987324,11.38346 C53.7712113,11.2990075 53.5425352,11.223685 53.3069296,11.1700463 C53.1602535,11.1346675 53.0101127,11.1118425 52.8599718,11.0878763 C52.6416901,11.0559213 52.4268732,11.0308138 52.2074366,11.022825 C52.1277465,11.0194013 52.0526761,11 51.971831,11 L5.77464789,11 C2.59859155,11 0,13.5678127 0,16.7062504 C0,19.8446881 2.59859155,22.4125008 5.77464789,22.4125008 L39.7780845,22.4125008 L10.5190986,57.7090831 C10.4544225,57.7889706 10.414,57.8779881 10.3527887,57.9601581 C10.2627042,58.0834132 10.1818592,58.2112332 10.1010141,58.3413357 C9.9843662,58.5319244 9.87464789,58.7213719 9.78225352,58.9199495 C9.71642254,59.0603232 9.66329577,59.205262 9.60901408,59.351342 C9.53509859,59.5510608 9.46811268,59.7496383 9.41729577,59.9562045 C9.37802817,60.1159795 9.35261972,60.2803196 9.32721127,60.4458008 C9.29602817,60.6512258 9.27177465,60.8543683 9.26369014,61.0620759 C9.26022535,61.1408221 9.23943662,61.2150034 9.23943662,61.2937496 C9.23943662,61.3896146 9.26369014,61.4797734 9.26830986,61.5744971 C9.27870423,61.7810634 9.29833803,61.9842059 9.33183099,62.1884897 C9.35839437,62.3528297 9.38957746,62.5114634 9.43,62.6712385 C9.48312676,62.8846522 9.55011268,63.0900772 9.62749296,63.2966435 C9.67715493,63.4233223 9.7268169,63.5488598 9.78456338,63.6721148 C9.88966197,63.901506 10.0132394,64.1206261 10.1506761,64.3363223 C10.2049577,64.4207748 10.2603944,64.5040861 10.3192958,64.5862561 C10.4786761,64.8087999 10.6553803,65.0187899 10.8494085,65.2196499 C10.9140845,65.2881249 10.9799155,65.3520349 11.0480563,65.4148036 C11.1600845,65.5197987 11.2524789,65.6384887 11.3737465,65.7354949 C11.4742254,65.8153824 11.5862535,65.8678799 11.6901972,65.9397787 C11.774507,65.9991237 11.8622817,66.0527624 11.9489014,66.1075424 C12.1764225,66.2479162 12.4074085,66.3757362 12.6476338,66.4830137 C12.758507,66.5332287 12.8728451,66.5731725 12.988338,66.61654 C13.2158592,66.6998512 13.4433803,66.7751737 13.6789859,66.8299537 C13.825662,66.8641912 13.9758028,66.8870162 14.1270986,66.9109825 C14.3442254,66.9429375 14.5590423,66.968045 14.7784789,66.9760337 C14.858169,66.9794575 14.9332394,67 15.0140845,67 L76.2253521,67 C79.4014085,67 82,64.4321873 82,61.2937496 L82,27.0562473 C82,23.9178096 79.4014085,21.3499969 76.2253521,21.3499969" id="Fill-3"></path>
                </g>
            </g>
        </g>
    </g>
</svg>