<?xml version="1.0" encoding="utf-8"?>
<!-- Generator: Adobe Illustrator 19.2.1, SVG Export Plug-In . SVG Version: 6.00 Build 0)  -->
<svg version="1.1" id="Слой_1" xmlns="http://www.w3.org/2000/svg" xmlns:xlink="http://www.w3.org/1999/xlink" x="0px" y="0px"
	 width="231.6px" height="60.4px" viewBox="0 0 231.6 60.4" style="enable-background:new 0 0 231.6 60.4;" xml:space="preserve">
<style type="text/css">
	.st0{fill:#E4446B;}
</style>
<g id="mox_logo" transform="translate(14094.887 -710.302)">
	<g transform="matrix(1, 0, 0, 1, -14094.89, 710.3)">
		<path id="Path_30-2" class="st0" d="M0,36.7v22.6h15.2V29.9L0,36.7z"/>
	</g>
	<g transform="matrix(1, 0, 0, 1, -14094.89, 710.3)">
		<path id="Path_31-2" class="st0" d="M28.4,53.6h11.2l13.3-28.8v34.5h15.2V1.1H49.6L34.1,33.4L18.5,1.1h-15l11.7,24.5L28.4,53.6z"
			/>
	</g>
	<g transform="matrix(1, 0, 0, 1, -14094.89, 710.3)">
		<path id="Path_32-2" class="st0" d="M131.8,14.7c-2.7-4.6-6.7-8.3-11.4-10.8c-5-2.6-10.6-4-16.2-3.9C98.6-0.1,93,1.3,88,3.9
			c-4.7,2.5-8.6,6.2-11.3,10.8c-2.8,4.7-4.2,10-4.1,15.4c-0.1,5,1.1,10,3.5,14.4l14.7-10c-0.4-1.4-0.5-2.9-0.5-4.4
			c0-2.8,0.6-5.5,1.9-8c1.2-2.3,3-4.3,5.2-5.7c2.1-1.4,4.6-2.1,7.1-2.1c2.5,0,4.9,0.7,7,2.1c2.1,1.4,3.9,3.4,5,5.7
			c1.2,2.5,1.9,5.2,1.8,8c0,2.8-0.6,5.6-1.8,8.1c-1.1,2.3-2.9,4.3-5,5.7c-2,1.4-4.5,2.1-6.9,2.1c-0.2,0-0.4,0-0.6,0l-3.6,14.2
			c1.3,0.1,2.6,0.2,3.9,0.2c5.6,0.1,11.2-1.3,16.2-3.9c4.7-2.5,8.6-6.3,11.4-10.9c2.8-4.7,4.2-10.1,4.1-15.6
			C135.9,24.6,134.5,19.3,131.8,14.7z"/>
	</g>
	<g transform="matrix(1, 0, 0, 1, -14094.89, 710.3)">
		<path id="Path_33-2" class="st0" d="M214.2,2.3h-38.1l-9.8,13.9l-9.4-13.9h-20L156,30.7l-20.5,29.5h20l10.8-16.5l11,16.5h35.9
			L231.6,31L214.2,2.3z M207.1,43.1h-7l-6.6-17.4H187v17.4h-6.8V25.8h-6.6v-5.4h25l5.2,15.7l5.2-15.7h6.9L207.1,43.1z"/>
	</g>
</g>
</svg>
